<?xml version="1.0" standalone="no"?>
<!DOCTYPE svg PUBLIC "-//W3C//DTD SVG 20010904//EN"
 "http://www.w3.org/TR/2001/REC-SVG-20010904/DTD/svg10.dtd">
<svg version="1.0" xmlns="http://www.w3.org/2000/svg"
 width="1024.000000pt" height="1024.000000pt" viewBox="0 0 1024.000000 1024.000000"
 preserveAspectRatio="xMidYMid meet">

<g transform="translate(0.000000,1024.000000) scale(0.100000,-0.100000)"
fill="#000000" stroke="none">
<path d="M0 5120 l0 -5120 995 0 c844 0 995 2 988 14 -4 7 -33 42 -63 77 -121
138 -218 249 -276 315 -139 156 -231 264 -264 308 -19 26 -48 62 -63 81 -18
21 -24 36 -17 40 8 5 7 11 -1 21 -9 11 -8 18 6 33 16 19 16 19 -4 14 -12 -3
-21 -1 -21 6 0 6 -8 11 -17 11 -16 1 -16 2 1 15 28 21 70 19 91 -5 10 -11 25
-20 34 -20 26 0 88 -58 172 -160 43 -52 119 -140 169 -195 98 -108 159 -179
349 -407 l123 -148 2857 0 c1986 0 2860 3 2868 11 14 14 517 280 784 414 36
18 94 51 130 73 36 21 85 48 111 59 25 12 100 53 166 92 66 39 123 71 127 71
3 0 22 11 43 23 44 28 135 78 292 160 102 53 263 140 560 303 l95 52 3 3504 2
3504 -22 21 c-13 11 -77 59 -143 106 -148 106 -190 137 -440 323 -110 82 -226
168 -258 190 l-58 42 61 37 c41 25 69 36 86 32 16 -3 24 0 24 9 0 8 5 14 10
14 6 0 10 -9 10 -19 0 -11 4 -22 8 -25 4 -2 6 11 4 30 -4 29 -1 34 17 34 12 0
21 -6 21 -12 0 -9 4 -8 10 2 8 12 10 11 10 -7 0 -12 6 -28 13 -35 6 -7 12 -20
12 -28 0 -8 10 -16 23 -18 17 -3 22 -9 20 -25 -2 -13 -10 -21 -18 -19 -8 1 -1
-9 15 -23 19 -16 37 -23 49 -19 14 5 18 3 13 -10 -3 -8 -2 -18 3 -21 6 -4 10
1 10 10 0 13 2 14 14 3 10 -9 11 -15 3 -20 -12 -7 0 -13 38 -21 11 -2 19 -8
18 -14 -1 -6 8 -19 20 -29 l22 -19 -20 24 c-14 17 -16 23 -5 19 8 -2 21 -16
28 -31 13 -27 44 -41 77 -35 10 2 20 -3 23 -11 3 -11 -2 -12 -24 -7 l-29 7 25
-20 c15 -12 33 -18 45 -15 13 4 16 2 7 -3 -9 -7 -3 -16 20 -33 18 -14 36 -24
40 -22 5 1 8 -4 8 -10 0 -7 21 -26 48 -43 26 -16 70 -46 98 -67 28 -21 54 -38
57 -38 4 0 7 137 7 305 0 179 -4 305 -9 305 -5 0 -16 3 -25 6 -13 5 -16 -1
-16 -26 0 -27 -3 -31 -22 -28 -25 3 -33 26 -24 64 6 21 12 24 51 24 33 0 45 4
45 15 0 12 -14 15 -69 15 -40 0 -71 5 -73 10 -6 18 -113 24 -148 10 -43 -18
-63 1 -26 26 20 13 52 18 127 20 55 1 102 4 103 6 2 1 6 20 9 41 6 41 -10 51
-30 18 -6 -10 -22 -21 -35 -23 -13 -3 -31 -9 -40 -13 -14 -5 -18 -2 -18 13 0
13 -11 24 -31 33 -28 11 -33 10 -44 -4 -16 -22 -85 -24 -85 -3 0 8 6 17 12 20
11 5 11 7 1 12 -7 3 -13 21 -13 40 l0 34 -47 -6 c-86 -10 -93 -12 -93 -39 0
-14 -4 -25 -10 -25 -5 0 -10 12 -10 26 0 24 -2 25 -39 19 -32 -5 -40 -3 -43
11 -3 16 -4 16 -17 1 -12 -15 -11 -17 3 -17 9 0 16 -8 16 -20 0 -30 -33 -25
-47 7 -7 15 -13 40 -13 56 0 25 -2 28 -15 17 -8 -7 -15 -23 -15 -35 0 -23 -23
-40 -50 -36 -20 4 -45 42 -42 63 2 10 -1 26 -7 35 -9 16 -10 14 -11 -9 0 -16
-4 -28 -10 -28 -16 0 -12 -22 7 -35 10 -7 18 -26 19 -41 1 -16 3 -31 3 -33 1
-2 8 2 16 9 9 7 18 10 22 6 10 -10 12 -56 2 -56 -5 0 -9 -7 -9 -15 0 -8 -15
-21 -32 -29 l-33 -13 27 -8 c33 -8 48 0 48 26 0 10 5 19 10 19 6 0 10 -11 10
-25 0 -28 20 -35 21 -7 0 10 3 12 6 5 9 -23 30 -14 36 16 3 15 14 31 24 35 10
3 24 9 32 12 9 4 11 2 7 -5 -5 -7 3 -11 24 -11 17 0 38 -6 45 -14 18 -18 31
-86 16 -86 -6 0 -11 -11 -11 -25 0 -14 5 -25 10 -25 6 0 10 7 10 16 0 15 2 15
25 0 15 -10 34 -14 45 -11 16 5 20 2 20 -16 0 -12 -3 -19 -7 -16 -3 4 -12 2
-19 -4 -8 -7 -14 -7 -19 1 -3 5 -15 10 -26 10 -11 0 -17 -5 -14 -10 10 -17 -5
-49 -23 -49 -9 -1 -36 -4 -59 -7 -41 -6 -42 -6 -45 27 -2 19 -11 36 -23 43
-11 6 -22 14 -25 17 -10 11 -40 18 -45 9 -3 -4 -23 -11 -45 -15 -34 -6 -40
-11 -40 -31 0 -16 -6 -24 -17 -24 -15 0 -15 -2 -4 -9 11 -7 -1 -18 -45 -42
-32 -19 -63 -33 -68 -31 -19 6 -142 94 -372 268 -135 101 -252 184 -261 184
-13 0 -12 5 8 26 32 35 71 54 109 54 26 0 29 2 18 14 -7 8 -14 10 -16 5 -2 -5
-12 -9 -23 -9 -11 0 -37 -11 -58 -24 -21 -14 -41 -22 -44 -19 -4 3 16 17 43
31 47 24 49 27 34 43 -13 14 -21 16 -36 8 -17 -9 -18 -8 -6 10 16 26 22 26 49
-1 21 -23 21 -23 10 -1 -6 12 -16 23 -23 25 -7 3 -13 19 -14 36 -1 17 2 29 7
26 5 -3 9 15 9 40 0 35 -5 49 -20 58 -11 7 -20 21 -20 30 0 10 -7 18 -16 18
-12 0 -15 -7 -11 -26 4 -20 1 -24 -12 -18 -9 3 -26 9 -38 11 -12 3 -31 16 -44
29 -18 19 -20 26 -10 38 7 9 11 21 8 28 -4 8 -8 5 -13 -10 -5 -16 -12 -21 -25
-17 -13 4 -19 1 -19 -9 0 -24 -9 -20 -51 24 -43 44 -69 51 -69 20 0 -18 -16
-25 -42 -21 -11 1 -10 -13 2 -43 5 -14 5 -28 1 -31 -5 -3 -8 -16 -7 -30 2 -13
0 -22 -5 -20 -4 3 -7 25 -6 49 1 25 -1 48 -6 52 -4 4 -24 3 -44 -2 -27 -6 -39
-16 -44 -34 -5 -18 -7 -20 -8 -6 -1 12 -6 16 -16 12 -8 -3 -43 12 -78 34 -34
22 -67 40 -74 40 -6 0 -13 5 -15 11 -2 6 -25 -6 -50 -26 -38 -28 -53 -34 -75
-29 -66 16 -174 84 -322 202 -19 15 -51 38 -72 52 -200 134 -199 134 -199 100
0 -34 21 -66 76 -114 30 -27 54 -55 54 -63 0 -8 5 -11 10 -8 6 3 10 1 10 -6 0
-7 7 -20 15 -29 11 -13 13 -24 5 -51 -6 -18 -10 -48 -10 -65 0 -23 -5 -33 -20
-37 -16 -4 -20 -1 -15 11 3 11 -3 22 -15 30 -12 7 -20 8 -20 2 0 -5 -12 -10
-27 -9 -16 0 -22 3 -15 6 7 2 12 22 12 44 0 32 -3 39 -20 39 -11 0 -20 -7 -20
-15 0 -8 -9 -15 -20 -15 -11 0 -20 -5 -20 -11 0 -6 -9 -8 -20 -4 -16 5 -20 2
-20 -19 0 -29 -8 -31 -62 -16 -26 8 -44 8 -57 0 -13 -6 -22 -6 -26 0 -3 5 -12
7 -20 3 -9 -3 -15 1 -15 11 0 9 -7 16 -16 16 -12 0 -14 -7 -9 -30 5 -23 3 -30
-8 -30 -21 0 -89 -70 -83 -86 6 -17 -11 -30 -51 -39 -36 -7 -40 -14 -20 -35
10 -12 9 -12 -5 -1 -9 7 -23 9 -29 5 -9 -5 -8 -10 3 -18 20 -15 34 -70 16 -64
-7 3 -15 15 -16 29 -6 39 -19 43 -49 13 -15 -15 -20 -22 -11 -15 36 27 40 3
13 -74 -6 -17 -4 -17 12 3 17 21 21 22 32 8 11 -13 11 -19 1 -31 -7 -8 -16
-12 -21 -9 -5 3 -6 -2 -3 -10 8 -20 34 -29 34 -11 0 8 5 15 10 15 6 0 10 -4
10 -10 0 -5 8 -10 18 -11 9 0 2 -5 -15 -10 -18 -5 -49 -26 -69 -46 -33 -32
-35 -37 -19 -43 13 -5 15 -9 7 -14 -7 -4 -12 -23 -12 -42 0 -19 -4 -33 -8 -30
-5 3 -7 23 -5 45 3 45 -5 51 -27 21 -17 -24 -42 -27 -33 -4 5 13 2 15 -15 9
-24 -7 -29 4 -11 22 9 9 7 19 -6 40 -16 24 -19 25 -24 9 -6 -16 -8 -16 -26 4
-16 18 -17 23 -5 31 15 10 8 9 -64 -6 -22 -4 -25 -2 -24 25 l1 31 23 -22 c13
-13 27 -19 31 -15 4 4 1 11 -7 16 -13 8 -12 10 3 10 9 0 26 -5 37 -12 16 -10
23 -9 44 11 26 24 26 52 0 30 -7 -6 -11 -15 -8 -20 3 -5 -1 -9 -9 -9 -8 0 -26
17 -40 37 -15 21 -27 31 -27 23 0 -9 -14 -21 -30 -27 -17 -6 -34 -22 -39 -35
-9 -21 -10 -21 -10 -3 -1 12 4 26 11 33 8 8 5 14 -15 21 -17 7 -27 18 -27 31
0 12 -4 18 -10 15 -14 -9 -12 -42 3 -48 6 -3 0 -6 -15 -6 -21 -1 -28 -6 -28
-21 0 -26 -43 -44 -71 -30 -14 8 -19 7 -19 -1 0 -7 -8 -18 -17 -25 -17 -13
-17 -13 0 -14 9 0 17 -7 17 -15 0 -17 -16 -20 -25 -5 -5 8 -11 7 -21 -1 -18
-15 -7 -31 16 -24 13 4 20 0 25 -15 4 -14 15 -20 36 -20 16 0 29 -4 29 -10 0
-5 -4 -10 -10 -10 -5 0 -10 -7 -10 -15 0 -11 -8 -13 -30 -8 -20 4 -30 2 -30
-7 0 -8 -8 -10 -23 -6 -16 4 -28 -1 -40 -15 -10 -11 -23 -17 -29 -13 -8 5 -9
2 -5 -9 9 -25 -6 -21 -34 9 -17 18 -19 23 -6 18 20 -7 21 -1 6 28 -8 15 -8 19
0 14 6 -4 11 -2 11 4 0 6 -12 15 -26 20 -32 12 -27 13 -52 -9 l-22 -18 21 -19
c21 -19 21 -19 19 1 -5 48 14 66 22 20 3 -15 1 -22 -5 -18 -6 4 -8 0 -4 -11 5
-14 2 -17 -16 -16 -43 4 -55 0 -60 -20 -3 -11 -10 -20 -15 -20 -6 0 -8 9 -5
20 4 14 0 20 -12 20 -9 0 -19 -9 -22 -20 -3 -11 -12 -20 -20 -20 -8 0 -11 5
-8 10 9 14 -4 12 -19 -3 -11 -10 -11 -15 0 -25 14 -13 8 -46 -7 -36 -5 3 -7 9
-4 14 3 5 -3 14 -14 20 -14 7 -22 7 -26 0 -8 -13 -57 -9 -68 5 -6 6 -10 6 -14
-3 -2 -6 -9 -9 -14 -6 -6 3 -2 12 8 20 15 12 16 15 3 23 -22 15 -6 23 24 12
27 -11 34 -27 14 -33 -8 -3 -7 -6 3 -10 9 -3 22 -2 30 2 11 7 8 13 -11 30 -14
12 -32 26 -40 31 -13 8 -12 11 5 21 27 16 44 18 51 6 3 -5 12 1 18 14 6 12 20
24 31 26 19 3 19 2 2 -11 -10 -8 -15 -21 -11 -30 3 -10 -2 -20 -15 -27 -24
-12 -28 -40 -6 -40 8 0 15 5 15 10 0 6 6 10 14 10 8 0 17 6 19 13 4 9 8 8 16
-3 5 -8 12 -12 16 -9 3 3 -4 18 -16 32 -11 15 -16 27 -11 27 5 0 17 16 26 35
14 28 14 38 4 55 -7 11 -16 20 -20 20 -10 0 -10 -3 2 -34 9 -26 -3 -46 -15
-26 -5 8 -13 6 -26 -6 -10 -9 -27 -14 -38 -11 -14 3 -18 1 -14 -10 4 -11 0
-14 -18 -11 -31 4 -59 56 -38 69 39 23 42 27 34 45 -5 11 -9 30 -9 43 -1 26
-26 43 -26 17 0 -9 -8 -16 -20 -16 -16 0 -20 7 -20 30 0 17 -5 30 -11 30 -6 0
-8 -9 -4 -20 7 -22 -5 -26 -23 -8 -15 15 -16 58 -1 58 5 0 7 5 4 10 -3 6 -15
10 -25 10 -10 0 -20 6 -23 13 -3 9 -7 9 -19 0 -8 -7 -19 -9 -23 -5 -5 4 -5 2
-1 -5 3 -6 19 -14 34 -18 25 -5 27 -9 24 -40 -3 -28 -1 -35 12 -35 10 0 22
-13 28 -30 8 -24 13 -28 24 -19 7 6 21 9 31 7 14 -3 10 -8 -16 -21 -25 -12
-37 -14 -47 -6 -7 6 -19 7 -25 3 -9 -5 -7 -10 5 -20 13 -9 14 -14 5 -20 -7 -4
-15 -2 -17 4 -2 7 -10 12 -19 12 -31 0 -5 -25 29 -28 26 -2 37 -9 41 -23 3
-10 10 -19 16 -19 9 0 9 5 1 20 -7 14 -7 20 0 20 5 0 10 -8 10 -17 0 -16 2
-16 11 -3 8 12 9 10 4 -8 -4 -15 -2 -24 9 -28 18 -7 9 -34 -12 -34 -8 0 -24
-7 -34 -17 -17 -15 -18 -15 -18 0 0 10 -4 17 -10 17 -15 0 -12 38 3 43 9 3 9
7 -2 20 -16 21 -35 22 -28 3 7 -18 -18 -24 -58 -15 l-30 7 33 1 c40 1 39 9 -5
45 -26 22 -37 26 -43 16 -15 -24 -29 -1 -20 32 10 33 5 52 -11 42 -5 -3 -16 0
-24 6 -12 10 -15 9 -15 -9 0 -15 6 -21 21 -21 11 0 17 -5 14 -10 -4 -6 -8 -40
-9 -75 -2 -66 9 -86 31 -56 16 23 24 10 14 -25 -5 -16 -10 -23 -10 -16 -1 12
-33 17 -44 6 -8 -9 21 -64 33 -64 6 0 10 -5 10 -11 0 -6 -10 -9 -22 -7 -17 2
-22 9 -21 25 3 23 -38 63 -63 63 -18 0 -18 14 -1 29 16 13 28 5 21 -14 -4 -10
24 -31 31 -23 2 2 5 31 7 66 4 57 3 62 -14 56 -26 -8 -79 53 -72 82 3 12 -1
28 -10 37 -17 17 -22 42 -7 32 5 -3 16 2 24 10 9 8 32 15 51 15 20 0 36 5 36
10 0 6 9 10 20 10 28 0 26 33 -2 45 -15 7 -22 18 -21 31 2 17 -5 23 -27 28
-35 6 -39 25 -10 46 28 20 25 36 -10 50 -17 7 -30 18 -30 25 0 15 -40 24 -75
17 -18 -3 -25 -11 -25 -26 0 -13 -11 -33 -24 -45 -21 -20 -23 -27 -14 -47 6
-13 17 -24 25 -24 7 0 13 -4 13 -10 0 -5 13 -10 29 -10 21 0 32 6 36 20 3 11
13 20 21 20 8 0 14 -9 14 -20 0 -11 -4 -20 -10 -20 -5 0 -10 -9 -10 -20 0 -17
-7 -20 -40 -20 -37 0 -40 -2 -40 -29 0 -15 8 -39 18 -52 15 -22 18 -38 13 -76
0 -6 -9 -14 -18 -16 -11 -3 -7 -5 10 -6 15 0 36 -10 48 -22 18 -18 19 -23 7
-35 -17 -17 -88 -8 -88 12 0 7 -5 16 -11 20 -8 4 -9 -1 -5 -17 l7 -24 -19 21
c-13 16 -26 20 -45 17 -16 -3 -27 -1 -27 6 0 6 10 10 23 8 16 -1 22 3 21 16
-2 14 6 17 40 17 36 1 39 2 24 14 -23 17 -23 27 -2 19 11 -4 15 -2 12 7 -2 7
-14 17 -26 21 -18 7 -24 4 -31 -14 -8 -20 -10 -20 -16 -4 -4 9 -4 32 -1 51 6
34 6 34 -36 41 -70 11 -78 15 -78 41 0 20 5 24 30 24 20 0 30 -5 30 -15 0 -8
5 -15 10 -15 6 0 10 11 10 25 0 22 -4 25 -27 23 -26 -3 -28 0 -31 34 -3 30 -8
39 -27 44 -29 7 -60 1 -59 -12 1 -5 4 -21 8 -37 5 -23 3 -29 -20 -37 -23 -9
-25 -14 -19 -49 8 -46 4 -49 -75 -65 -65 -14 -81 -4 -60 35 6 11 7 19 1 19 -5
0 -11 7 -15 15 -11 29 19 15 37 -17 17 -29 20 -31 28 -15 16 28 7 62 -16 62
-11 0 -26 5 -32 12 -7 6 -18 14 -25 16 -10 4 -10 7 0 15 8 5 30 5 58 -1 56
-13 69 -2 60 47 -6 29 -11 36 -31 36 -45 0 -75 21 -75 52 0 24 -4 28 -30 28
-23 0 -30 4 -30 20 0 16 -7 20 -35 20 -28 0 -35 -4 -35 -20 0 -16 7 -20 35
-20 28 0 35 -4 35 -20 0 -12 -7 -20 -17 -20 -17 0 -63 -79 -63 -107 0 -9 -137
-30 -145 -21 -2 2 3 21 11 43 20 57 18 108 -5 129 -12 11 -21 14 -26 7 -3 -6
-22 -11 -41 -11 -33 0 -34 1 -34 40 l0 40 40 0 c33 0 40 3 40 20 0 17 -7 20
-40 20 -22 0 -40 5 -40 10 0 6 9 10 20 10 11 0 20 5 20 10 0 6 18 10 40 10 33
0 40 -3 40 -20 0 -13 7 -20 20 -20 13 0 20 7 20 20 0 13 7 20 20 20 29 0 27
37 -2 43 -13 2 -4 5 20 6 39 1 42 -1 42 -24 0 -22 4 -25 40 -25 22 0 40 -4 40
-10 0 -5 14 -10 30 -10 17 0 30 5 30 10 0 6 9 10 20 10 13 0 20 7 20 20 0 13
7 20 20 20 13 0 20 7 20 20 0 17 7 20 50 20 43 0 50 3 50 20 0 11 5 20 10 20
6 0 10 9 10 20 0 20 -7 20 -1984 20 -1092 0 -1987 -4 -1990 -8 -3 -5 -29 -14
-59 -21 -45 -10 -61 -9 -98 3 -55 19 -92 21 -143 7 -22 -5 -44 -8 -48 -5 -4 3
-13 2 -20 -2 -23 -14 -81 -15 -89 -2 -7 10 -9 10 -9 1 0 -7 -4 -13 -10 -13 -5
0 -10 6 -10 14 0 23 -49 26 -411 26 l-349 0 0 -5120z m7548 4777 c2 -10 -3
-17 -12 -17 -10 0 -16 9 -16 21 0 24 23 21 28 -4z m-4 -68 c-10 -16 -24 -9
-24 12 0 18 2 19 15 9 8 -7 12 -16 9 -21z m-184 1 c0 -5 -4 -10 -10 -10 -5 0
-10 5 -10 10 0 6 5 10 10 10 6 0 10 -4 10 -10z m944 -35 c3 -8 1 -15 -4 -15
-6 0 -10 7 -10 15 0 8 2 15 4 15 2 0 6 -7 10 -15z m28 -30 c-8 -15 -10 -13
-14 14 -4 28 -3 30 10 18 10 -11 11 -20 4 -32z m64 -22 c-10 -46 -11 -47 -17
-18 -3 19 0 36 9 48 8 9 16 17 17 17 1 0 -3 -21 -9 -47z m-86 17 c0 -5 -5 -10
-11 -10 -5 0 -7 5 -4 10 3 6 8 10 11 10 2 0 4 -4 4 -10z m137 -66 c-4 -28 -4
-28 -6 4 -1 38 -21 44 -21 6 0 -14 -4 -23 -8 -20 -4 3 -6 21 -4 40 4 34 4 35
24 16 13 -12 18 -27 15 -46z m-162 36 c3 -5 1 -10 -4 -10 -6 0 -11 5 -11 10 0
6 2 10 4 10 3 0 8 -4 11 -10z m35 -10 c0 -5 -2 -10 -4 -10 -3 0 -8 5 -11 10
-3 6 -1 10 4 10 6 0 11 -4 11 -10z m-3407 -7 c-7 -2 -19 -2 -25 0 -7 3 -2 5
12 5 14 0 19 -2 13 -5z m3559 -35 c-6 -6 -7 0 -4 19 5 21 7 23 10 9 2 -10 0
-22 -6 -28z m54 2 c0 -12 -4 -16 -9 -11 -5 5 -6 14 -3 20 10 15 12 14 12 -9z
m-3613 3 c-7 -2 -19 -2 -25 0 -7 3 -2 5 12 5 14 0 19 -2 13 -5z m324 -25 c-3
-8 -6 -5 -6 6 -1 11 2 17 5 13 3 -3 4 -12 1 -19z m338 0 c6 -4 2 -8 -7 -8 -10
0 -18 7 -18 17 0 9 3 12 8 7 4 -5 12 -12 17 -16z m1412 7 c9 -25 -4 -29 -17
-6 -7 15 -7 21 0 21 6 0 13 -7 17 -15z m1566 -12 c-7 -3 -13 -12 -13 -20 0 -9
-2 -14 -5 -11 -4 3 -3 18 1 33 5 20 9 24 18 14 8 -8 8 -13 -1 -16z m-163 7 c0
-5 -2 -10 -4 -10 -3 0 -8 5 -11 10 -3 6 -1 10 4 10 6 0 11 -4 11 -10z m122
-25 c3 -13 1 -22 -3 -19 -9 5 -13 44 -5 44 2 0 6 -11 8 -25z m78 9 c0 -8 -5
-12 -10 -9 -6 4 -8 11 -5 16 9 14 15 11 15 -7z m-3659 -16 c22 -28 24 -38 4
-38 -8 0 -15 7 -15 15 0 8 -9 15 -20 15 -11 0 -20 7 -20 15 0 22 29 18 51 -7z
m3549 12 c0 -5 -2 -10 -4 -10 -3 0 -8 5 -11 10 -3 6 -1 10 4 10 6 0 11 -4 11
-10z m-3234 -37 c-11 -11 -17 4 -9 23 7 18 8 18 11 1 2 -10 1 -21 -2 -24z
m294 33 c0 -3 -4 -8 -10 -11 -5 -3 -10 -1 -10 4 0 6 5 11 10 11 6 0 10 -2 10
-4z m3061 -23 c-12 -20 -14 -14 -5 12 4 9 9 14 11 11 3 -2 0 -13 -6 -23z m-28
-13 c-7 -28 -13 -25 -13 6 0 14 4 23 9 20 5 -3 7 -15 4 -26z m137 20 c0 -5 -5
-10 -11 -10 -6 0 -9 -9 -6 -20 3 -11 0 -23 -5 -27 -7 -3 -8 -1 -4 5 4 7 2 12
-3 12 -13 0 -10 19 4 37 12 15 25 17 25 3z m-1770 -15 c0 -8 -4 -15 -10 -15
-5 0 -10 7 -10 15 0 8 5 15 10 15 6 0 10 -7 10 -15z m1690 -1 c0 -8 -5 -12
-10 -9 -6 4 -8 11 -5 16 9 14 15 11 15 -7z m-3300 -9 c0 -8 -4 -15 -10 -15 -5
0 -10 7 -10 15 0 8 5 15 10 15 6 0 10 -7 10 -15z m-260 -15 c0 -5 -7 -10 -15
-10 -8 0 -15 5 -15 10 0 6 7 10 15 10 8 0 15 -4 15 -10z m-120 -20 c0 -4 -6
-13 -14 -19 -11 -9 -15 -8 -20 5 -3 9 -4 20 -1 24 6 10 35 2 35 -10z m240 10
c0 -5 -4 -10 -10 -10 -5 0 -10 5 -10 10 0 6 5 10 10 10 6 0 10 -4 10 -10z
m156 -17 c-10 -10 -19 5 -10 18 6 11 8 11 12 0 2 -7 1 -15 -2 -18z m3321 10
c-4 -3 -2 -11 3 -18 7 -8 6 -12 -3 -12 -7 0 -14 9 -14 19 -1 10 3 18 9 18 6 0
8 -3 5 -7z m-3366 -12 c7 11 9 10 9 -3 0 -10 -7 -18 -15 -18 -8 0 -15 8 -14
18 0 12 2 13 6 3 5 -11 7 -11 14 0z m1228 -38 c0 -10 -5 -27 -10 -38 -8 -17
-8 -15 -4 8 3 15 1 27 -5 27 -5 0 -10 5 -10 10 0 6 7 10 15 10 8 0 15 -8 14
-17z m121 7 c0 -6 -11 -9 -25 -7 -37 5 -42 17 -7 17 18 0 32 -5 32 -10z
m-1700 -10 c0 -5 -4 -10 -10 -10 -5 0 -10 5 -10 10 0 6 5 10 10 10 6 0 10 -4
10 -10z m885 0 c3 -5 1 -10 -4 -10 -6 0 -11 5 -11 10 0 6 2 10 4 10 3 0 8 -4
11 -10z m1095 0 c0 -5 -5 -10 -11 -10 -5 0 -7 5 -4 10 3 6 8 10 11 10 2 0 4
-4 4 -10z m-1663 -15 c8 -8 20 -12 26 -8 7 4 8 0 4 -11 -4 -10 -1 -19 7 -22 8
-3 12 -14 9 -25 -6 -21 -23 -26 -23 -6 0 16 -49 65 -51 51 -1 -5 -2 -15 -3
-23 -2 -22 -26 -25 -26 -4 0 18 26 63 36 63 3 0 12 -7 21 -15z m-108 -28 c12
-15 12 -17 -3 -11 -9 3 -16 1 -16 -6 0 -6 -4 -8 -10 -5 -6 4 -5 13 2 25 7 11
13 18 13 17 0 -1 7 -10 14 -20z m1314 -8 c-6 -6 -17 -8 -24 -3 -9 5 -8 9 7 14
23 9 31 3 17 -11z m-73 1 c0 -5 -4 -10 -10 -10 -5 0 -10 5 -10 10 0 6 5 10 10
10 6 0 10 -4 10 -10z m-1290 -10 c0 -5 -4 -10 -10 -10 -5 0 -10 5 -10 10 0 6
5 10 10 10 6 0 10 -4 10 -10z m276 -5 c11 -27 -2 -37 -14 -11 -7 16 -8 26 -1
26 5 0 12 -7 15 -15z m178 -27 c9 14 26 16 26 2 0 -5 -5 -10 -12 -10 -6 0 -20
-7 -30 -17 -20 -18 -23 -8 -11 37 l7 25 6 -25 c4 -17 8 -21 14 -12z m891 -34
c14 -3 25 -10 25 -15 0 -13 -9 -11 -39 10 -17 12 -36 18 -49 14 -28 -7 -28 0
0 33 l23 25 8 -30 c5 -21 15 -33 32 -37z m113 48 c6 -18 -15 -14 -22 4 -4 10
-1 14 6 12 6 -2 14 -10 16 -16z m67 9 c3 -5 1 -12 -5 -16 -6 -4 -7 -12 -4 -18
4 -7 -1 -5 -11 5 -9 9 -14 21 -11 27 9 13 23 14 31 2z m-152 -22 c-7 -7 -19
-8 -30 -4 -16 7 -15 9 7 15 30 8 38 4 23 -11z m447 0 c0 -11 -27 -12 -34 0 -3
4 -3 11 0 14 8 8 34 -3 34 -14z m-1770 -42 c0 -21 -25 2 -32 29 l-7 29 19 -25
c11 -14 20 -29 20 -33z m524 29 c-3 -9 -13 -16 -22 -16 -13 0 -12 3 3 20 20
23 29 21 19 -4z m-490 -1 c-4 -8 -10 -15 -14 -15 -4 0 -10 7 -14 15 -4 10 1
15 14 15 13 0 18 -5 14 -15z m316 -14 c0 -11 5 -23 10 -26 6 -3 10 -10 10 -16
0 -17 -20 -9 -20 9 -1 16 -1 16 -14 0 -8 -11 -20 -15 -34 -11 -32 8 -27 24 6
21 23 -3 27 0 25 20 -2 12 2 22 7 22 6 0 10 -9 10 -19z m-250 -1 c8 -5 11 -12
7 -16 -4 -4 -15 0 -24 9 -18 18 -8 23 17 7z m1357 -23 c26 -34 57 -49 71 -35
13 13 28 -33 18 -58 -5 -13 -2 -15 14 -11 25 6 26 -5 1 -27 -16 -15 -19 -15
-31 -1 -7 9 -15 13 -18 11 -7 -8 25 -36 40 -36 8 0 19 -5 26 -12 7 -7 12 -8
12 -2 0 6 -5 15 -11 21 -8 8 -8 13 0 17 6 4 11 0 11 -8 0 -9 4 -16 8 -16 5 0
14 -16 22 -35 11 -27 16 -32 27 -24 15 13 18 43 3 34 -13 -8 -13 8 0 21 7 7 4
16 -10 29 -14 13 -20 14 -20 5 0 -11 -3 -11 -12 -2 -9 10 -9 16 4 28 15 15 18
14 37 -5 16 -16 21 -17 21 -6 0 20 6 19 28 -3 17 -17 17 -21 4 -38 -13 -16
-14 -17 -9 -1 4 11 1 17 -7 17 -19 0 -28 -28 -16 -49 5 -10 6 -21 3 -25 -3 -3
-1 -6 5 -6 7 0 12 -9 12 -19 0 -11 6 -22 13 -24 7 -3 4 -6 -6 -6 -10 -1 -15
-5 -12 -11 3 -6 -1 -7 -9 -4 -9 3 -16 1 -16 -5 0 -6 9 -11 20 -11 10 0 24 -9
30 -20 11 -20 10 -20 -22 -1 -18 10 -32 26 -32 35 1 9 -5 16 -13 16 -10 0 -14
-7 -10 -19 2 -10 1 -25 -4 -32 -6 -10 -9 -3 -9 20 0 29 -3 33 -21 28 -13 -3
-19 -1 -16 6 2 7 14 11 26 10 11 -2 21 2 21 7 0 6 -4 10 -9 10 -5 0 -11 9 -14
20 -3 12 -14 20 -26 20 -26 0 -27 -9 -3 -26 16 -12 16 -14 -3 -28 -11 -8 -29
-15 -40 -15 -19 0 -18 1 4 20 21 17 22 22 10 30 -12 8 -12 10 0 18 7 5 11 14
7 19 -9 16 -36 3 -36 -17 0 -9 -4 -22 -9 -30 -8 -12 -12 -13 -26 -1 -9 7 -14
19 -11 27 6 16 5 16 -28 3 -20 -7 -26 -6 -31 9 -3 11 -5 23 -4 27 5 27 -1 34
-21 24 -25 -14 -25 -25 1 -61 11 -16 16 -29 10 -29 -5 0 -12 4 -16 10 -3 5
-11 7 -18 5 -7 -3 -21 2 -32 11 -19 14 -19 16 -2 28 9 7 17 15 17 17 0 3 -8 5
-17 5 -10 0 -28 4 -40 8 -17 5 -23 3 -23 -7 0 -10 7 -13 20 -10 12 3 20 0 20
-6 0 -8 -12 -11 -32 -9 -25 2 -33 -1 -32 -12 1 -9 -7 -16 -17 -16 -24 0 -25
22 -2 30 15 6 15 8 3 17 -11 7 -12 11 -3 17 9 5 4 15 -16 32 -24 19 -27 25
-16 37 18 17 29 17 22 -1 -8 -20 21 -56 44 -56 11 0 17 5 14 10 -3 6 1 10 10
10 8 0 18 -7 21 -15 6 -15 34 -21 34 -7 -1 32 -14 52 -31 47 -14 -5 -17 -2
-13 9 4 10 -2 16 -18 18 -20 4 -21 6 -6 12 11 5 23 2 34 -8 8 -9 24 -20 33
-26 13 -7 17 -17 13 -36 -4 -25 -3 -26 10 -13 9 8 12 16 7 19 -4 3 -4 12 1 20
8 12 13 11 31 -9 19 -21 23 -21 31 -7 5 9 6 21 2 28 -5 8 1 9 20 4 21 -5 26
-3 26 13 0 11 -4 23 -10 26 -5 3 -10 1 -10 -5 0 -6 -5 -8 -10 -5 -6 4 -17 1
-25 -5 -12 -10 -15 -9 -15 3 0 9 -9 18 -19 22 -20 6 -37 35 -21 35 6 0 18 -9
27 -20 23 -27 48 -27 33 -1 -20 39 -2 44 27 8z m43 13 c0 -5 7 -7 15 -4 9 4
15 0 15 -10 0 -19 -9 -20 -32 -2 -20 15 -23 26 -8 26 6 0 10 -4 10 -10z m247
-49 c-1 -22 -7 -31 -19 -31 -22 0 -24 26 -3 34 8 3 15 13 15 21 0 9 -4 13 -10
10 -6 -4 -7 1 -3 11 9 25 23 -5 20 -45z m-401 40 c-4 -5 0 -12 6 -14 10 -4 9
-8 -2 -16 -12 -8 -12 -13 -2 -23 10 -10 15 -10 22 2 5 8 12 11 15 8 11 -11 -5
-28 -26 -28 -11 0 -22 6 -25 14 -3 8 -17 17 -30 20 -14 4 -22 11 -19 16 4 6
14 6 28 -1 12 -7 19 -8 15 -4 -4 5 -3 14 3 22 13 15 23 18 15 4z m-1286 -5 c0
-3 -4 -8 -10 -11 -5 -3 -10 -1 -10 4 0 6 5 11 10 11 6 0 10 -2 10 -4z m135 -6
c3 -5 1 -10 -4 -10 -6 0 -11 5 -11 10 0 6 2 10 4 10 3 0 8 -4 11 -10z m50 1
c3 -5 1 -12 -5 -16 -5 -3 -10 1 -10 9 0 18 6 21 15 7z m1452 -33 c-13 -20 -27
-24 -27 -8 0 6 6 13 14 16 8 3 12 13 9 22 -4 14 -3 14 5 3 7 -10 6 -20 -1 -33z
m-1150 10 c-3 -8 -6 -5 -6 6 -1 11 2 17 5 13 3 -3 4 -12 1 -19z m-867 2 c0 -5
-5 -10 -11 -10 -5 0 -7 5 -4 10 3 6 8 10 11 10 2 0 4 -4 4 -10z m97 -3 c7 0
10 -4 8 -8 -3 -4 7 -17 22 -28 16 -11 23 -21 16 -21 -6 0 -14 4 -18 10 -3 5
-12 7 -20 3 -11 -4 -13 -1 -9 11 4 11 -2 19 -20 26 -14 5 -26 12 -26 16 0 3 8
3 18 -1 9 -4 22 -8 29 -8z m240 -14 c-8 -7 -37 9 -31 19 3 5 12 4 20 -3 8 -6
13 -14 11 -16z m85 5 c-7 -7 -12 -8 -12 -2 0 14 12 26 19 19 2 -3 -1 -11 -7
-17z m73 13 c3 -5 1 -12 -4 -15 -5 -3 -11 1 -15 9 -6 16 9 21 19 6z m403 -4
c-1 -2 3 -11 11 -20 11 -15 11 -17 -2 -17 -9 0 -19 5 -22 10 -8 12 3 46 11 37
3 -3 4 -7 2 -10z m42 3 c0 -5 -4 -10 -10 -10 -5 0 -10 5 -10 10 0 6 5 10 10
10 6 0 10 -4 10 -10z m-340 -4 c0 -11 -19 -15 -25 -6 -3 5 1 10 9 10 9 0 16
-2 16 -4z m1540 -6 c0 -5 -2 -10 -4 -10 -3 0 -8 5 -11 10 -3 6 -1 10 4 10 6 0
11 -4 11 -10z m-1604 -27 c7 -10 13 -22 13 -28 0 -5 -4 -2 -10 8 -5 9 -20 17
-32 17 -18 0 -19 2 -7 10 20 13 21 13 36 -7z m91 -5 c-3 -8 -6 -5 -6 6 -1 11
2 17 5 13 3 -3 4 -12 1 -19z m69 -5 c-10 -10 -19 5 -10 18 6 11 8 11 12 0 2
-7 1 -15 -2 -18z m4064 7 c0 -13 -7 -20 -20 -20 -11 0 -20 5 -20 10 0 6 -9 10
-20 10 -11 0 -20 5 -20 10 0 6 18 10 40 10 33 0 40 -3 40 -20z m-3870 -21 c0
-4 -7 -9 -15 -13 -8 -3 -15 -1 -15 3 0 5 -3 17 -6 26 -6 15 -4 15 15 4 11 -8
21 -17 21 -20z m1060 21 c0 -5 -14 -10 -31 -10 -17 0 -28 4 -24 10 3 6 17 10
31 10 13 0 24 -4 24 -10z m150 0 c0 -5 -2 -10 -4 -10 -3 0 -8 5 -11 10 -3 6
-1 10 4 10 6 0 11 -4 11 -10z m-2200 -16 c0 -8 -5 -12 -10 -9 -6 4 -8 11 -5
16 9 14 15 11 15 -7z m90 12 c0 -11 -19 -15 -25 -6 -3 5 1 10 9 10 9 0 16 -2
16 -4z m320 -6 c0 -5 -4 -10 -10 -10 -5 0 -10 5 -10 10 0 6 5 10 10 10 6 0 10
-4 10 -10z m80 0 c0 -5 -5 -10 -11 -10 -5 0 -7 5 -4 10 3 6 8 10 11 10 2 0 4
-4 4 -10z m62 -12 c-6 -6 -15 -8 -19 -4 -4 4 -1 11 7 16 19 12 27 3 12 -12z
m149 13 c-7 -5 -11 -13 -7 -19 3 -6 2 -13 -4 -17 -5 -3 -10 3 -10 14 0 10 -6
22 -12 24 -7 3 1 6 17 6 21 0 26 -2 16 -8z m147 -16 c-3 -3 -9 2 -12 12 -6 14
-5 15 5 6 7 -7 10 -15 7 -18z m92 10 c10 -12 10 -15 -4 -15 -9 0 -16 7 -16 15
0 8 2 15 4 15 2 0 9 -7 16 -15z m124 -2 c9 -21 -13 -34 -36 -22 -22 12 -24 34
-2 25 8 -3 12 -2 9 4 -3 6 0 10 8 10 8 0 18 -8 21 -17z m526 0 c0 -3 -12 -16
-27 -29 -30 -25 -53 -31 -53 -13 0 5 5 7 10 4 6 -3 10 -1 10 6 0 20 31 48 46
42 8 -3 14 -8 14 -10z m668 -8 c-3 -3 -9 2 -12 12 -6 14 -5 15 5 6 7 -7 10
-15 7 -18z m-1488 -3 c0 -10 -52 -33 -59 -26 -8 7 41 44 51 38 4 -3 8 -8 8
-12z m340 5 c0 -7 -6 -19 -12 -25 -10 -10 -10 -15 2 -22 13 -8 13 -10 -2 -10
-9 0 -31 -12 -48 -26 -24 -21 -28 -29 -18 -36 10 -8 10 -9 -2 -5 -25 6 -23 34
2 40 18 5 20 9 10 19 -10 10 -15 10 -22 -2 -6 -9 -10 -10 -10 -3 0 6 -3 19 -6
28 -6 14 -3 14 20 4 14 -7 26 -16 26 -21 0 -18 29 20 36 46 6 27 24 36 24 13z
m343 1 c-4 -7 -6 -23 -5 -34 2 -13 -4 -24 -14 -28 -21 -8 -33 2 -16 13 12 7
18 24 21 54 1 4 6 7 12 7 6 0 7 -5 2 -12z m242 2 c-3 -5 -10 -10 -16 -10 -5 0
-9 5 -9 10 0 6 7 10 16 10 8 0 12 -4 9 -10z m475 3 c0 -5 -5 -15 -10 -23 -7
-11 -12 -12 -21 -3 -6 6 -8 16 -5 22 8 12 36 15 36 4z m2834 -2 c3 -5 -1 -14
-9 -21 -13 -10 -15 -9 -15 9 0 21 14 28 24 12z m-4709 -29 c-3 -3 -11 0 -18 7
-9 10 -8 11 6 5 10 -3 15 -9 12 -12z m522 12 c-3 -3 -12 -4 -19 -1 -8 3 -5 6
6 6 11 1 17 -2 13 -5z m603 -15 c0 -6 -4 -7 -10 -4 -5 3 -10 11 -10 16 0 6 5
7 10 4 6 -3 10 -11 10 -16z m790 13 c0 -14 -11 -21 -26 -15 -21 8 -17 23 6 23
11 0 20 -4 20 -8z m63 -9 c-7 -2 -13 -14 -13 -26 0 -14 -3 -18 -10 -11 -15 15
-2 44 19 43 10 0 11 -2 4 -6z m-1783 -12 c0 -5 -7 -12 -16 -15 -22 -9 -24 -8
-24 9 0 8 9 15 20 15 11 0 20 -4 20 -9z m186 -9 c1 -7 0 -8 -3 -2 -2 5 -9 8
-14 4 -5 -3 -9 0 -9 6 0 15 23 7 26 -8z m128 3 c3 -8 1 -15 -3 -15 -5 0 -11 7
-15 15 -3 8 -1 15 3 15 5 0 11 -7 15 -15z m66 -17 c0 -5 -2 -8 -4 -8 -2 0 -10
-2 -18 -5 -8 -3 -13 3 -13 18 0 20 3 22 18 13 9 -6 17 -14 17 -18z m430 22 c0
-5 -2 -10 -4 -10 -3 0 -8 5 -11 10 -3 6 -1 10 4 10 6 0 11 -4 11 -10z m190 0
c0 -5 -4 -10 -10 -10 -5 0 -10 5 -10 10 0 6 5 10 10 10 6 0 10 -4 10 -10z
m130 0 c12 -8 11 -10 -7 -10 -13 0 -23 5 -23 10 0 13 11 13 30 0z m-1213 -14
c-5 -16 -24 -18 -30 -4 -3 9 3 14 14 14 11 0 18 -5 16 -10z m578 -4 c19 -11
18 -11 -7 -12 -16 0 -28 -6 -28 -12 0 -9 -3 -10 -8 -2 -4 6 -14 14 -22 17 -12
4 -11 6 3 6 9 1 17 5 17 10 0 12 19 9 45 -7z m403 2 c13 5 12 2 -2 -9 -11 -8
-14 -15 -8 -15 7 0 12 -4 12 -10 0 -5 -7 -7 -15 -4 -8 4 -15 13 -15 21 0 10
-7 14 -20 10 -11 -3 -20 -2 -20 2 0 16 13 20 32 10 11 -6 27 -8 36 -5z m-858
-4 c0 -5 -7 -10 -16 -10 -8 0 -12 5 -9 10 3 6 10 10 16 10 5 0 9 -4 9 -10z
m675 -42 c0 -42 -29 -70 -66 -66 -23 2 -35 9 -37 21 -2 10 3 17 12 17 9 0 16
-4 16 -10 0 -5 7 -10 17 -10 15 0 15 2 -1 19 -10 11 -15 25 -11 31 5 8 13 5
26 -9 20 -22 39 -28 39 -13 0 16 -39 54 -49 48 -5 -4 -12 -2 -15 3 -10 15 27
18 49 4 12 -7 21 -23 20 -35z m44 -5 c1 -7 -3 -13 -8 -13 -10 0 -20 57 -12 66
6 5 18 -28 20 -53z m327 35 c-10 -6 -20 -7 -24 -3 -9 8 20 25 31 18 5 -3 2
-10 -7 -15z m634 12 c0 -12 -8 -12 -35 0 -18 8 -17 9 8 9 15 1 27 -3 27 -9z
m-1900 -10 c0 -5 -4 -10 -10 -10 -5 0 -10 5 -10 10 0 6 5 10 10 10 6 0 10 -4
10 -10z m384 -5 c-4 -8 -13 -15 -22 -15 -13 0 -12 3 4 15 24 18 25 18 18 0z
m-319 -5 c3 -5 1 -10 -4 -10 -6 0 -11 5 -11 10 0 6 2 10 4 10 3 0 8 -4 11 -10z
m749 1 c3 -5 -1 -11 -9 -14 -9 -4 -12 -1 -8 9 6 16 10 17 17 5z m192 -5 c3 -8
19 -18 35 -21 23 -5 27 -10 19 -20 -11 -14 -4 -45 12 -45 19 0 48 21 43 31 -4
5 -2 9 4 9 5 0 13 -9 16 -20 8 -24 18 -25 39 -5 8 8 21 15 28 15 8 -1 5 -7 -8
-18 -11 -10 -18 -24 -16 -32 4 -13 3 -13 -11 -2 -9 8 -21 11 -27 7 -5 -3 -10
1 -10 9 0 23 -21 20 -27 -4 -6 -24 -12 -24 -37 -5 -16 12 -22 12 -28 2 -6 -9
-10 -9 -18 3 -13 20 -13 26 5 44 20 19 19 26 -3 26 -19 0 -42 18 -42 32 0 14
20 9 26 -6z m304 7 c-1 -18 -19 -35 -29 -28 -9 5 -9 10 0 21 12 15 29 19 29 7z
m523 -15 c-13 -12 -26 -19 -29 -15 -4 4 1 14 12 22 29 22 41 18 17 -7z m-1403
8 c0 -3 -4 -8 -10 -11 -5 -3 -10 -1 -10 4 0 6 5 11 10 11 6 0 10 -2 10 -4z
m1475 -25 c-3 -3 -10 1 -14 8 -7 10 -12 8 -24 -10 -18 -25 -31 -22 -21 4 3 9
13 18 22 20 19 4 46 -12 37 -22z m-1730 1 c-3 -3 -11 0 -18 7 -9 10 -8 11 6 5
10 -3 15 -9 12 -12z m505 9 c0 -6 -4 -13 -10 -16 -5 -3 -10 1 -10 9 0 9 5 16
10 16 6 0 10 -4 10 -9z m487 -4 c12 -12 -6 -20 -20 -9 -8 7 -18 7 -27 2 -21
-14 -30 -12 -24 3 5 14 58 16 71 4z m33 3 c0 -5 -4 -10 -10 -10 -5 0 -10 5
-10 10 0 6 5 10 10 10 6 0 10 -4 10 -10z m-827 -20 c-3 -11 -7 -20 -9 -20 -2
0 -4 9 -4 20 0 11 4 20 9 20 5 0 7 -9 4 -20z m217 16 c0 -2 -7 -6 -15 -10 -8
-3 -15 -1 -15 4 0 6 7 10 15 10 8 0 15 -2 15 -4z m643 -11 c-3 -9 -8 -14 -10
-11 -3 3 -2 9 2 15 9 16 15 13 8 -4z m182 5 c3 -5 1 -10 -4 -10 -6 0 -11 5
-11 10 0 6 2 10 4 10 3 0 8 -4 11 -10z m-1009 -16 c-8 -21 20 -54 45 -54 11 0
16 -5 13 -14 -6 -17 -54 -9 -54 9 0 8 -7 21 -16 30 -13 12 -14 19 -4 30 16 20
24 19 16 -1z m851 -6 c-3 -8 -6 -5 -6 6 -1 11 2 17 5 13 3 -3 4 -12 1 -19z
m313 4 c0 -5 -7 -17 -15 -28 -14 -19 -14 -19 -15 2 0 11 3 24 7 27 9 10 23 9
23 -1z m-1415 -20 c-3 -3 -11 0 -18 7 -9 10 -8 11 6 5 10 -3 15 -9 12 -12z
m605 8 c0 -5 -4 -10 -10 -10 -5 0 -10 5 -10 10 0 6 5 10 10 10 6 0 10 -4 10
-10z m210 -1 c12 -8 8 -9 -15 -7 -24 2 -29 0 -27 -16 2 -10 -2 -16 -8 -14 -6
2 -11 7 -11 11 1 4 1 14 1 22 0 17 37 20 60 4z m117 5 c-3 -3 -12 -4 -19 -1
-8 3 -5 6 6 6 11 1 17 -2 13 -5z m80 0 c-3 -3 -12 -4 -19 -1 -8 3 -5 6 6 6 11
1 17 -2 13 -5z m150 -6 c-2 -7 3 -18 10 -23 12 -9 11 -11 -6 -11 -11 0 -17 4
-15 8 3 5 -2 11 -11 14 -13 6 -14 8 -3 15 19 13 30 11 25 -3z m78 3 c3 -5 -4
-13 -16 -16 -23 -8 -34 -1 -24 14 8 13 32 14 40 2z m448 -5 c17 -13 14 -51 -4
-40 -5 3 -6 10 -3 16 4 6 -1 17 -11 25 -11 7 -15 13 -9 13 5 0 17 -7 27 -14z
m68 -1 c-1 -5 -10 -11 -21 -11 -20 -1 -26 7 -13 20 10 9 34 3 34 -9z m106 0
c0 -8 -4 -12 -9 -9 -5 3 -6 10 -3 15 9 13 12 11 12 -6z m-1692 -5 c3 -5 1 -10
-4 -10 -6 0 -11 5 -11 10 0 6 2 10 4 10 3 0 8 -4 11 -10z m220 0 c3 -5 1 -10
-4 -10 -6 0 -11 5 -11 10 0 6 2 10 4 10 3 0 8 -4 11 -10z m123 -4 c-7 -8 -15
-12 -17 -11 -5 6 10 25 20 25 5 0 4 -6 -3 -14z m764 -23 c-9 -21 -21 -42 -27
-46 -5 -5 0 -5 13 -2 23 7 31 -9 10 -19 -7 -3 -1 -5 13 -3 17 3 30 -3 38 -15
17 -27 13 -33 -9 -13 -11 10 -23 15 -27 12 -4 -4 -17 2 -29 14 -19 17 -26 19
-44 9 -18 -9 -24 -9 -30 0 -5 9 -9 9 -14 1 -9 -14 -26 -14 -26 0 0 5 5 7 10 4
6 -3 10 -1 10 5 0 6 6 10 13 9 30 -4 58 2 52 11 -3 5 -12 7 -20 3 -8 -3 -15 0
-15 7 0 6 10 10 23 8 16 -2 25 4 34 25 7 15 19 27 27 27 14 0 14 -5 -2 -37z
m-832 17 c0 -5 -5 -10 -11 -10 -5 0 -7 5 -4 10 3 6 8 10 11 10 2 0 4 -4 4 -10z
m105 -10 c3 -5 1 -10 -4 -10 -6 0 -11 5 -11 10 0 6 2 10 4 10 3 0 8 -4 11 -10z
m35 0 c0 -5 -4 -10 -10 -10 -5 0 -10 5 -10 10 0 6 5 10 10 10 6 0 10 -4 10
-10z m43 -34 c-4 -17 2 -28 18 -40 l23 -16 -22 0 c-36 0 -37 1 -36 15 1 7 -7
15 -16 18 -13 3 -20 -2 -24 -18 -6 -24 -42 -40 -53 -23 -4 7 -1 8 7 3 9 -5 10
-2 5 14 -7 22 10 30 18 9 2 -7 8 -10 12 -5 5 4 3 13 -3 19 -21 21 -13 31 23
25 34 -6 35 -5 28 21 -5 23 -4 25 9 14 9 -7 13 -22 11 -36z m531 7 c11 -7 15
-13 9 -13 -7 0 -22 -9 -34 -21 -17 -17 -34 -21 -94 -22 -40 -1 -71 -5 -68 -9
2 -5 -1 -8 -7 -8 -6 0 -9 -4 -6 -9 3 -5 0 -11 -8 -14 -18 -7 -10 28 11 44 18
15 77 23 68 9 -3 -6 1 -10 9 -10 9 0 16 5 16 10 0 6 11 8 25 4 20 -5 25 -2 25
12 0 16 2 16 10 4 8 -12 10 -12 16 3 7 19 -1 32 -18 32 -6 0 -13 6 -16 13 -4
12 -1 12 18 0 12 -7 32 -19 44 -25z m3506 12 c0 -14 -4 -25 -10 -25 -5 0 -10
11 -10 25 0 14 5 25 10 25 6 0 10 -11 10 -25z m-4760 5 c0 -5 -4 -10 -10 -10
-5 0 -10 5 -10 10 0 6 5 10 10 10 6 0 10 -4 10 -10z m445 0 c-3 -5 -12 -10
-18 -10 -7 0 -6 4 3 10 19 12 23 12 15 0z m504 -11 c12 -20 11 -21 -9 -16 -19
5 -21 2 -17 -19 5 -30 -20 -48 -40 -29 -17 18 -16 25 3 25 14 0 14 1 0 16 -27
27 -18 44 23 44 16 0 31 -8 40 -21z m241 -5 c0 -3 -4 -2 -10 1 -5 3 -10 2 -10
-4 0 -5 6 -12 13 -14 6 -3 0 -4 -16 -3 -27 3 -51 16 -29 16 7 0 12 7 12 15 0
13 4 14 20 5 11 -6 20 -13 20 -16z m289 11 c18 -6 21 -9 10 -16 -11 -7 -12
-11 -1 -17 10 -7 10 -11 -2 -21 -11 -9 -16 -9 -22 0 -4 8 -3 9 4 5 16 -10 15
5 -2 27 -14 18 -32 24 -21 7 3 -5 1 -10 -5 -10 -7 0 -10 6 -7 14 3 8 1 17 -6
20 -14 7 16 1 52 -9z m61 5 c0 -5 -4 -10 -10 -10 -5 0 -10 5 -10 10 0 6 5 10
10 10 6 0 10 -4 10 -10z m357 4 c-3 -3 -12 -4 -19 -1 -8 3 -5 6 6 6 11 1 17
-2 13 -5z m-1832 -14 c3 -5 -1 -10 -10 -10 -9 0 -13 5 -10 10 3 6 8 10 10 10
2 0 7 -4 10 -10z m175 1 c0 -6 -4 -13 -10 -16 -5 -3 -10 1 -10 9 0 9 5 16 10
16 6 0 10 -4 10 -9z m345 -2 c-4 -6 2 -13 14 -16 11 -3 18 -9 15 -15 -3 -5
-12 -4 -20 3 -11 9 -18 8 -31 -2 -9 -8 -14 -9 -11 -4 2 6 8 18 11 28 4 9 11
17 17 17 6 0 8 -5 5 -11z m175 -9 c0 -11 -4 -20 -9 -20 -6 0 -9 9 -8 20 1 11
5 20 9 20 4 0 8 -9 8 -20z m95 0 c16 -13 16 -14 -2 -21 -25 -9 -37 0 -22 17 7
9 8 14 1 14 -6 0 -12 -6 -14 -12 -4 -10 -9 -8 -21 3 -15 15 -14 17 12 15 16
-1 36 -8 46 -16z m963 8 c-3 -14 -24 -38 -33 -38 -3 0 2 11 11 25 18 27 25 32
22 13z m-1628 -8 c0 -5 -4 -10 -10 -10 -5 0 -10 5 -10 10 0 6 5 10 10 10 6 0
10 -4 10 -10z m360 6 c0 -3 -4 -8 -10 -11 -5 -3 -10 -1 -10 4 0 6 5 11 10 11
6 0 10 -2 10 -4z m850 -8 c0 -4 -4 -8 -9 -8 -6 0 -12 4 -15 8 -3 5 1 9 9 9 8
0 15 -4 15 -9z m201 -16 c-6 -2 -9 -8 -5 -13 3 -5 0 -9 -5 -9 -6 0 -11 12 -11
26 0 23 2 25 16 13 10 -8 12 -15 5 -17z m259 19 c0 -5 -7 -11 -14 -14 -10 -4
-13 -1 -9 9 6 15 23 19 23 5z m-1543 -23 c-18 -19 -23 -20 -28 -8 -4 9 0 18
10 22 32 13 40 7 18 -14z m763 0 c-72 -17 -84 -19 -79 -14 11 12 85 32 99 27
9 -3 1 -8 -20 -13z m485 12 c-3 -5 -10 -10 -16 -10 -5 0 -9 5 -9 10 0 6 7 10
16 10 8 0 12 -4 9 -10z m92 -17 c-3 -3 -11 -2 -17 2 -9 6 -9 10 1 16 14 8 27
-7 16 -18z m-1622 7 c3 -6 -1 -7 -9 -4 -18 7 -21 14 -7 14 6 0 13 -4 16 -10z
m-93 -42 c-6 -6 -7 0 -4 19 5 21 7 23 10 9 2 -10 0 -22 -6 -28z m438 32 c0 -5
-4 -10 -9 -10 -6 0 -13 5 -16 10 -3 6 1 10 9 10 9 0 16 -4 16 -10z m40 0 c0
-5 -4 -10 -10 -10 -5 0 -10 5 -10 10 0 6 5 10 10 10 6 0 10 -4 10 -10z m71
-36 c-9 -7 -18 -10 -21 -7 -3 3 0 8 6 10 7 2 10 14 7 26 -5 22 -5 22 10 2 13
-17 13 -21 -2 -31z m319 39 c0 -5 -4 -14 -9 -22 -8 -12 -11 -12 -25 1 -8 9
-12 18 -9 22 9 9 43 8 43 -1z m-363 -25 c-3 -8 -6 -5 -6 6 -1 11 2 17 5 13 3
-3 4 -12 1 -19z m413 -6 c0 -16 -59 -34 -77 -23 -16 9 -14 10 11 11 20 0 27 4
23 14 -3 8 -3 17 0 20 7 6 43 -12 43 -22z m130 -4 l0 -33 20 25 c11 14 20 21
20 15 0 -12 -55 -75 -65 -75 -4 0 -5 7 -1 15 3 10 -3 17 -19 21 -29 7 -31 19
-10 41 13 13 18 13 32 1 15 -11 16 -11 10 5 -3 9 -2 17 3 17 6 0 10 -15 10
-32z m544 17 c-4 -8 -13 -15 -21 -15 -13 0 -13 3 -3 15 7 8 16 15 21 15 5 0 6
-7 3 -15z m-1617 -12 c-4 -3 -1 -13 6 -22 11 -14 10 -14 -5 -2 -16 12 -16 31
-1 31 4 0 3 -3 0 -7z m507 -9 c9 -8 16 -21 16 -27 0 -7 -5 -4 -11 5 -5 10 -17
22 -27 27 -9 6 -12 11 -5 11 6 0 19 -7 27 -16z m1191 6 c3 -5 1 -10 -4 -10 -6
0 -11 5 -11 10 0 6 2 10 4 10 3 0 8 -4 11 -10z m128 4 c-7 -3 -9 -12 -6 -20 3
-8 0 -14 -6 -14 -12 0 -15 23 -4 33 3 4 11 7 17 6 7 0 6 -2 -1 -5z m2947 -4
c0 -5 -4 -10 -10 -10 -5 0 -10 5 -10 10 0 6 5 10 10 10 6 0 10 -4 10 -10z
m-4613 -22 c-3 -8 -6 -5 -6 6 -1 11 2 17 5 13 3 -3 4 -12 1 -19z m283 12 c0
-5 -4 -10 -10 -10 -5 0 -10 5 -10 10 0 6 5 10 10 10 6 0 10 -4 10 -10z m180 0
c0 -5 -2 -10 -4 -10 -3 0 -8 5 -11 10 -3 6 -1 10 4 10 6 0 11 -4 11 -10z m685
0 c-4 -6 -1 -17 5 -25 9 -11 9 -15 1 -15 -6 0 -11 5 -11 11 0 6 -8 8 -19 4
-12 -4 -21 0 -25 11 -4 12 -2 15 9 11 8 -4 17 -2 20 3 4 6 11 10 16 10 6 0 7
-5 4 -10z m135 -10 c13 -21 0 -28 -14 -7 -16 21 -40 23 -32 2 3 -8 2 -15 -3
-15 -5 0 -11 9 -14 19 -4 16 0 18 25 17 16 -1 33 -9 38 -16z m130 -1 c0 -5 -8
-9 -17 -8 -11 0 -13 3 -5 6 6 2 9 10 6 15 -4 7 -2 8 4 4 7 -4 12 -11 12 -17z
m185 11 c3 -5 2 -10 -4 -10 -5 0 -13 5 -16 10 -3 6 -2 10 4 10 5 0 13 -4 16
-10z m-1385 -11 c0 -15 -18 -19 -23 -6 -3 8 1 14 9 14 8 0 14 -4 14 -8z m114
-5 c9 -24 7 -31 -5 -14 -8 11 -12 12 -16 2 -2 -6 -9 -10 -14 -7 -5 4 -3 12 4
20 16 19 24 18 31 -1z m495 -9 c7 3 8 0 5 -9 -3 -9 -10 -14 -14 -11 -5 3 -20
1 -35 -5 -17 -7 -24 -7 -20 0 3 6 14 10 23 11 11 0 9 4 -8 11 -24 10 -24 10
-5 18 13 5 24 3 32 -7 6 -8 16 -12 22 -8z m251 15 c0 -5 -4 -10 -9 -10 -6 0
-13 5 -16 10 -3 6 1 10 9 10 9 0 16 -4 16 -10z m110 0 c0 -5 -4 -10 -10 -10
-5 0 -10 5 -10 10 0 6 5 10 10 10 6 0 10 -4 10 -10z m3474 -31 c4 -23 13 -54
22 -70 9 -19 11 -29 3 -29 -6 0 -13 9 -16 20 -3 11 -12 19 -21 18 -14 -3 -18
20 -13 85 2 32 18 17 25 -24z m-4039 21 c3 -5 1 -10 -4 -10 -6 0 -11 5 -11 10
0 6 2 10 4 10 3 0 8 -4 11 -10z m390 0 c-3 -5 -2 -10 4 -10 6 0 8 -7 5 -15 -5
-11 1 -15 21 -15 15 0 24 -4 20 -10 -13 -21 -43 -10 -53 19 -6 16 -8 32 -5 35
10 10 15 7 8 -4z m451 -5 c-22 -17 -11 -39 16 -32 15 4 17 3 8 -8 -12 -15 -40
-10 -40 7 0 5 -10 6 -22 2 -19 -6 -20 -5 -8 8 16 15 51 37 60 37 3 0 -3 -6
-14 -14z m421 9 c-3 -3 -12 -4 -19 -1 -8 3 -5 6 6 6 11 1 17 -2 13 -5z m-1897
-8 c0 -3 -4 -8 -10 -11 -5 -3 -10 -1 -10 4 0 6 5 11 10 11 6 0 10 -2 10 -4z
m288 -21 c2 -18 2 -18 -8 -3 -6 9 -17 15 -25 12 -8 -4 -15 -2 -15 4 0 19 45 7
48 -13z m447 15 c29 -2 29 -2 5 -9 -14 -4 -30 -4 -37 1 -7 5 -14 5 -18 -2 -9
-15 -32 -12 -32 4 0 10 9 13 26 11 14 -2 40 -4 56 -5z m415 -23 c0 -4 -5 -5
-12 -1 -7 4 -26 9 -43 10 -48 4 -52 6 -25 13 26 7 80 -7 80 -22z m195 23 c3
-5 1 -10 -4 -10 -6 0 -11 5 -11 10 0 6 2 10 4 10 3 0 8 -4 11 -10z m250 0 c3
-6 -1 -7 -9 -4 -18 7 -21 14 -7 14 6 0 13 -4 16 -10z m2885 0 c0 -5 -7 -10
-15 -10 -8 0 -15 5 -15 10 0 6 7 10 15 10 8 0 15 -4 15 -10z m-3920 -4 c0 -2
-7 -7 -16 -10 -8 -3 -12 -2 -9 4 6 10 25 14 25 6z m685 -5 c3 -5 1 -12 -5 -16
-12 -7 -4 -25 11 -25 5 0 9 9 9 20 0 12 7 20 16 20 14 0 14 -3 4 -15 -7 -9
-10 -18 -6 -22 3 -4 13 2 21 13 13 17 14 17 15 2 0 -19 -49 -72 -58 -63 -4 3
0 10 8 15 11 7 9 11 -11 19 -24 9 -39 29 -39 52 0 12 27 12 35 0z m305 -1 c0
-5 -2 -10 -4 -10 -3 0 -8 5 -11 10 -3 6 -1 10 4 10 6 0 11 -4 11 -10z m94 -5
c-4 -8 -8 -15 -10 -15 -2 0 -4 7 -4 15 0 8 4 15 10 15 5 0 7 -7 4 -15z m2986
0 c0 -17 -2 -18 -24 -9 -23 9 -20 24 4 24 11 0 20 -7 20 -15z m-4404 -10 c-3
-8 -1 -15 5 -15 6 0 7 -5 3 -12 -6 -9 -9 -9 -12 0 -2 7 -8 9 -14 6 -5 -3 -4 3
4 15 15 24 23 28 14 6z m404 5 c0 -5 8 -10 18 -11 12 0 11 -3 -6 -10 -13 -5
-28 -7 -33 -3 -15 9 -10 34 6 34 8 0 15 -4 15 -10z m377 -10 c-1 -11 -7 -20
-14 -20 -7 0 -13 -5 -13 -11 0 -6 7 -9 15 -6 8 4 17 2 20 -3 6 -10 -36 -7 -53
4 -7 4 -12 13 -11 19 0 8 2 8 6 -1 6 -16 33 3 33 24 0 8 4 14 9 14 6 0 9 -9 8
-20z m693 11 c0 -6 -4 -13 -10 -16 -5 -3 -10 1 -10 9 0 9 5 16 10 16 6 0 10
-4 10 -9z m59 -9 c0 -11 -2 -12 -6 -4 -2 6 -9 10 -13 7 -5 -3 -11 -2 -14 3 -2
4 4 9 15 9 12 1 19 -4 18 -15z m-1245 -8 c3 -8 2 -12 -4 -9 -6 3 -10 10 -10
16 0 14 7 11 14 -7z m181 -9 c-1 -14 -5 -28 -8 -31 -3 -4 -4 7 -2 22 4 35 4
34 9 34 2 0 3 -11 1 -25z m-342 -12 c-4 -11 -8 -12 -13 -3 -5 9 -10 6 -14 -8
-4 -13 -13 -19 -22 -15 -20 7 -18 31 4 29 9 0 16 4 15 10 -1 7 6 10 17 7 11
-3 16 -11 13 -20z m377 18 c0 -5 10 -11 23 -13 l22 -3 -25 -14 c-14 -8 -22
-10 -17 -6 4 5 0 17 -10 27 -9 11 -11 18 -5 18 7 0 12 -4 12 -9z m103 2 c-7
-2 -13 -11 -13 -18 0 -7 -6 -16 -12 -18 -10 -4 -10 -7 0 -15 9 -6 4 -9 -17 -9
l-30 0 22 19 c18 16 19 21 7 30 -12 8 -12 9 3 4 9 -3 17 -1 17 4 0 6 8 10 18
9 10 0 12 -3 5 -6z m505 -29 c-1 -9 -10 -20 -18 -22 -13 -5 -13 -3 -1 11 7 9
10 25 7 34 -6 14 -4 15 4 7 7 -7 10 -20 8 -30z m-1061 20 c-3 -3 -12 -4 -19
-1 -8 3 -5 6 6 6 11 1 17 -2 13 -5z m198 -4 c-3 -5 -10 -10 -16 -10 -5 0 -9 5
-9 10 0 6 7 10 16 10 8 0 12 -4 9 -10z m432 4 c-3 -3 -12 -4 -19 -1 -8 3 -5 6
6 6 11 1 17 -2 13 -5z m250 -18 c11 -13 27 -26 34 -28 8 -3 11 -8 8 -12 -12
-13 -59 17 -59 38 0 20 0 20 -14 0 -14 -17 -13 -20 10 -30 40 -17 59 -54 28
-54 -10 0 -14 5 -10 15 4 11 -3 19 -19 25 -21 8 -45 44 -45 66 0 14 50 0 67
-20z m3818 14 c-3 -5 -13 -10 -21 -10 -8 0 -14 5 -14 10 0 6 9 10 21 10 11 0
17 -4 14 -10z m-4595 -10 c0 -5 -5 -10 -11 -10 -5 0 -7 5 -4 10 3 6 8 10 11
10 2 0 4 -4 4 -10z m290 -21 c0 -13 -27 -17 -41 -7 -11 8 -11 9 3 4 10 -3 20
-1 23 4 4 6 1 10 -5 10 -6 0 -8 5 -4 11 6 11 23 -5 24 -22z m548 19 c7 -7 12
-19 12 -27 -1 -14 -3 -13 -14 2 -7 9 -19 17 -25 17 -7 0 -9 5 -6 10 8 13 18
13 33 -2z m316 -12 c-3 -9 -10 -13 -16 -10 -5 3 -4 12 3 20 15 18 22 13 13
-10z m-593 -3 c13 -17 13 -17 -5 -3 -18 14 -19 13 -12 -5 5 -15 4 -17 -5 -8
-6 6 -8 16 -5 22 9 14 11 14 27 -6z m139 8 c0 -6 -9 -9 -19 -8 -11 0 -17 5
-15 9 7 11 34 10 34 -1z m301 -6 c-1 -15 -24 -12 -29 3 -3 9 2 13 12 10 10 -1
17 -7 17 -13z m-1101 -5 c0 -5 -4 -10 -10 -10 -5 0 -10 5 -10 10 0 6 5 10 10
10 6 0 10 -4 10 -10z m-310 -10 c0 -5 -4 -10 -10 -10 -5 0 -10 5 -10 10 0 6 5
10 10 10 6 0 10 -4 10 -10z m607 3 c-4 -3 -1 -13 6 -22 11 -14 10 -14 -5 -2
-16 12 -16 31 -1 31 4 0 3 -3 0 -7z m143 -3 c0 -5 -4 -10 -10 -10 -5 0 -10 5
-10 10 0 6 5 10 10 10 6 0 10 -4 10 -10z m880 0 c12 -7 10 -9 -8 -7 -12 0 -22
5 -22 9 0 11 12 10 30 -2z m-1234 -27 c-7 -7 -26 7 -26 19 0 6 6 6 15 -2 9 -7
13 -15 11 -17z m393 4 c12 -15 12 -17 -3 -11 -9 3 -16 13 -16 22 0 8 1 13 3
11 1 -2 9 -12 16 -22z m336 13 c3 -5 1 -10 -4 -10 -6 0 -11 5 -11 10 0 6 2 10
4 10 3 0 8 -4 11 -10z m600 0 c3 -5 1 -10 -4 -10 -6 0 -11 5 -11 10 0 6 2 10
4 10 3 0 8 -4 11 -10z m62 -5 c0 -8 -4 -12 -9 -9 -5 3 -6 10 -3 15 9 13 12 11
12 -6z m-717 -5 c0 -5 -4 -10 -10 -10 -5 0 -10 5 -10 10 0 6 5 10 10 10 6 0
10 -4 10 -10z m262 -9 c-11 -11 -17 -12 -19 -4 -3 7 -11 9 -19 6 -22 -8 19
-35 43 -28 10 3 8 0 -5 -6 -13 -7 -21 -18 -18 -25 3 -8 0 -11 -10 -7 -7 3 -14
0 -14 -6 0 -6 5 -11 11 -11 5 0 7 -5 3 -12 -6 -9 -9 -9 -12 0 -2 7 -7 10 -10
8 -4 -2 -8 7 -8 20 -1 15 4 24 13 24 8 0 11 5 7 11 -3 6 -19 9 -35 5 -16 -3
-31 -1 -35 6 -4 6 -1 9 7 6 8 -3 24 3 36 12 12 9 35 17 51 17 27 0 29 -2 14
-16z m205 4 c0 -8 -6 -15 -14 -15 -17 0 -17 17 0 23 6 3 12 6 13 6 0 1 1 -6 1
-14z m-850 -15 c1 -11 -4 -20 -12 -20 -8 0 -11 7 -8 20 3 11 8 20 12 20 4 0 7
-9 8 -20z m188 10 c3 -6 -1 -7 -9 -4 -18 7 -21 14 -7 14 6 0 13 -4 16 -10z
m56 -11 l24 -20 -30 17 c-39 24 -40 24 -28 24 6 0 21 -9 34 -21z m3989 12 c0
-6 -4 -13 -10 -16 -5 -3 -10 1 -10 9 0 9 5 16 10 16 6 0 10 -4 10 -9z m-4396
-9 c3 -5 -1 -9 -9 -9 -8 0 -12 4 -9 9 3 4 7 8 9 8 2 0 6 -4 9 -8z m586 -2 c0
-5 -4 -10 -9 -10 -6 0 -13 5 -16 10 -3 6 1 10 9 10 9 0 16 -4 16 -10z m300 0
c0 -5 -4 -10 -9 -10 -6 0 -13 5 -16 10 -3 6 1 10 9 10 9 0 16 -4 16 -10z m299
1 c7 -5 9 -11 5 -14 -5 -3 -15 1 -22 9 -14 16 -5 18 17 5z m-1143 -28 c-10
-10 -19 5 -10 18 6 11 8 11 12 0 2 -7 1 -15 -2 -18z m499 17 c3 -5 1 -10 -4
-10 -6 0 -11 5 -11 10 0 6 2 10 4 10 3 0 8 -4 11 -10z m505 0 c0 -5 -4 -10
-10 -10 -5 0 -10 5 -10 10 0 6 5 10 10 10 6 0 10 -4 10 -10z m40 0 c0 -5 -2
-10 -4 -10 -3 0 -8 5 -11 10 -3 6 -1 10 4 10 6 0 11 -4 11 -10z m50 -6 c0 -8
-4 -12 -10 -9 -5 3 -10 10 -10 16 0 5 5 9 10 9 6 0 10 -7 10 -16z m-860 2 c0
-2 -9 -6 -20 -9 -11 -3 -20 -1 -20 4 0 5 9 9 20 9 11 0 20 -2 20 -4z m45 -6
c3 -5 1 -10 -4 -10 -6 0 -11 5 -11 10 0 6 2 10 4 10 3 0 8 -4 11 -10z m562
-20 c6 0 14 -7 17 -16 5 -14 4 -15 -9 -4 -12 10 -18 10 -32 -1 -15 -12 -16
-12 -10 4 3 9 2 17 -3 17 -6 0 -10 7 -10 17 0 15 1 15 18 0 10 -10 23 -17 29
-17z m51 21 c11 -6 9 -9 -5 -13 -12 -3 -20 0 -20 8 0 16 6 17 25 5z m-1431
-16 c0 -8 -4 -12 -9 -9 -5 3 -6 10 -3 15 9 13 12 11 12 -6z m4703 -6 c0 -5 -7
-9 -15 -9 -15 0 -20 12 -9 23 8 8 24 -1 24 -14z m-3645 -19 c-15 -29 -35 -40
-35 -20 0 6 5 10 10 10 6 0 10 9 10 20 0 11 7 20 15 20 14 0 14 -3 0 -30z
m262 8 c-3 -8 -6 -5 -6 6 -1 11 2 17 5 13 3 -3 4 -12 1 -19z m177 13 c4 -5 -3
-7 -14 -4 -23 6 -26 13 -6 13 8 0 17 -4 20 -9z m-814 -22 c0 -5 -8 -9 -17 -8
-11 0 -13 3 -5 6 6 2 9 10 6 15 -4 7 -2 8 4 4 7 -4 12 -11 12 -17z m175 11
c-3 -5 2 -10 11 -10 14 0 15 -3 6 -12 -10 -10 -15 -10 -22 2 -13 20 -12 30 1
30 5 0 7 -4 4 -10z m293 -11 c-11 -8 -11 -10 0 -18 8 -4 14 -12 14 -16 0 -15
-26 -24 -39 -14 -7 6 -18 7 -24 3 -7 -4 -9 -3 -5 4 3 6 -2 15 -11 21 -10 6
-13 10 -8 10 6 0 19 -6 29 -14 29 -22 35 -19 31 14 -3 23 0 28 12 24 12 -5 12
-7 1 -14z m432 11 c0 -5 -7 -10 -16 -10 -8 0 -12 5 -9 10 3 6 10 10 16 10 5 0
9 -4 9 -10z m107 -5 c0 -8 -4 -12 -9 -9 -5 3 -6 10 -3 15 9 13 12 11 12 -6z
m-1613 -11 c3 -8 2 -12 -4 -9 -6 3 -10 10 -10 16 0 14 7 11 14 -7z m446 6 c0
-5 -7 -10 -16 -10 -8 0 -12 5 -9 10 3 6 10 10 16 10 5 0 9 -4 9 -10z m290 0
c8 -5 11 -10 5 -10 -5 0 -17 5 -25 10 -8 5 -10 10 -5 10 6 0 17 -5 25 -10z
m650 0 c0 -5 -5 -10 -11 -10 -5 0 -7 5 -4 10 3 6 8 10 11 10 2 0 4 -4 4 -10z
m-1117 -20 c-3 -11 -9 -20 -15 -20 -5 0 -4 9 2 20 6 11 12 20 14 20 2 0 2 -9
-1 -20z m42 10 c3 -5 1 -10 -4 -10 -6 0 -11 5 -11 10 0 6 2 10 4 10 3 0 8 -4
11 -10z m26 -13 c-10 -9 -11 -8 -5 6 3 10 9 15 12 12 3 -3 0 -11 -7 -18z
m1099 19 c0 -3 -4 -8 -10 -11 -5 -3 -10 -1 -10 4 0 6 5 11 10 11 6 0 10 -2 10
-4z m174 -35 c-2 -2 -10 2 -19 9 -12 10 -15 9 -15 -5 0 -10 -3 -16 -6 -12 -3
3 -3 15 1 26 6 19 7 19 24 3 10 -9 16 -19 15 -21z m41 29 c-3 -5 -12 -10 -18
-10 -7 0 -6 4 3 10 19 12 23 12 15 0z m-1415 -9 c0 -10 -26 -9 -36 2 -4 4 2 7
14 7 12 0 22 -4 22 -9z m1025 -1 c3 -5 1 -10 -4 -10 -6 0 -11 5 -11 10 0 6 2
10 4 10 3 0 8 -4 11 -10z m45 -8 c0 -5 -7 -9 -15 -9 -8 0 -12 4 -9 9 3 4 9 8
15 8 5 0 9 -4 9 -8z m104 -18 c7 -19 2 -18 -19 6 -16 17 -16 20 -3 15 9 -4 19
-13 22 -21z m53 20 c-3 -3 -12 -4 -19 -1 -8 3 -5 6 6 6 11 1 17 -2 13 -5z
m-847 -37 c0 -5 -4 -5 -10 -2 -5 3 -10 14 -10 23 0 15 2 15 10 2 5 -8 10 -19
10 -23z m310 -1 c0 -4 -9 -1 -19 6 -11 7 -17 16 -15 20 5 8 34 -15 34 -26z
m200 13 c0 -6 -4 -7 -10 -4 -5 3 -10 11 -10 16 0 6 5 7 10 4 6 -3 10 -11 10
-16z m3746 1 c8 0 14 -4 14 -10 0 -5 -7 -10 -15 -10 -8 0 -15 2 -15 4 0 2 -2
10 -3 18 -2 7 -2 10 0 6 3 -5 11 -8 19 -8z m-4713 3 c-7 -2 -19 -2 -25 0 -7 3
-2 5 12 5 14 0 19 -2 13 -5z m62 -3 c3 -6 -1 -7 -9 -4 -18 7 -21 14 -7 14 6 0
13 -4 16 -10z m95 6 c0 -3 -4 -8 -10 -11 -5 -3 -10 -1 -10 4 0 6 5 11 10 11 6
0 10 -2 10 -4z m530 -8 c-8 -7 -20 -20 -28 -28 -11 -13 -12 -12 -3 7 9 18 23
29 41 32 2 1 -2 -5 -10 -11z m420 -9 c0 -23 -33 -16 -37 7 -1 7 6 10 17 7 11
-3 20 -9 20 -14z m97 9 c10 -17 11 -58 1 -52 -4 3 -8 1 -8 -5 0 -7 -8 -7 -24
-1 -16 6 -26 5 -30 -1 -2 -5 -3 -4 -2 3 2 7 13 12 25 11 15 -2 21 3 21 18 0
11 -4 17 -10 14 -11 -7 -14 8 -3 18 10 10 21 8 30 -5z m-1097 -2 c0 -11 -19
-15 -25 -6 -3 5 1 10 9 10 9 0 16 -2 16 -4z m118 -21 c-3 -3 -9 2 -12 12 -6
14 -5 15 5 6 7 -7 10 -15 7 -18z m102 21 c0 -11 -19 -15 -25 -6 -3 5 1 10 9
10 9 0 16 -2 16 -4z m180 -23 c0 -19 -13 -9 -16 12 -1 8 2 13 7 9 5 -3 9 -12
9 -21z m305 17 c3 -5 1 -10 -4 -10 -6 0 -11 5 -11 10 0 6 2 10 4 10 3 0 8 -4
11 -10z m330 -1 c11 -16 1 -19 -13 -3 -7 8 -8 14 -3 14 5 0 13 -5 16 -11z
m180 -18 c3 -5 0 -13 -6 -17 -8 -4 -9 -3 -5 4 4 7 1 12 -8 12 -9 0 -16 -6 -16
-12 0 -9 -4 -8 -10 2 -6 10 -10 11 -10 3 0 -7 -4 -13 -10 -13 -18 0 -10 18 10
25 11 4 17 11 14 17 -4 6 1 6 14 -1 12 -6 23 -15 27 -20z m70 8 c-3 -4 -12 -6
-20 -3 -8 4 -13 10 -10 15 3 4 12 6 20 3 8 -4 13 -10 10 -15z m-1405 7 c0 -3
-4 -8 -10 -11 -5 -3 -10 -1 -10 4 0 6 5 11 10 11 6 0 10 -2 10 -4z m644 -11
c-4 -8 -13 -15 -20 -15 -12 0 -12 3 -2 15 17 19 29 19 22 0z m243 0 c-6 -6
-19 -10 -29 -7 -25 6 -14 20 16 20 19 0 22 -3 13 -13z m179 -14 c27 5 36 -1
24 -16 -11 -13 -14 -13 -27 1 -8 8 -20 13 -27 11 -15 -5 -14 -32 1 -32 7 0 17
-5 24 -12 8 -8 7 -11 -7 -10 -11 1 -23 -8 -29 -20 -11 -26 -25 -30 -25 -8 0 7
7 18 16 23 19 10 11 32 -12 32 -8 0 -14 5 -14 12 0 6 3 8 7 5 3 -4 12 -2 20 4
11 10 11 15 1 27 -10 12 -8 12 13 -2 15 -9 31 -16 35 -15z m488 14 c3 -8 1
-15 -4 -15 -6 0 -10 7 -10 15 0 8 2 15 4 15 2 0 6 -7 10 -15z m33 9 c-3 -3
-12 -4 -19 -1 -8 3 -5 6 6 6 11 1 17 -2 13 -5z m-1292 -22 c-3 -3 -11 0 -18 7
-9 10 -8 11 6 5 10 -3 15 -9 12 -12z m300 8 c-3 -5 -11 -10 -16 -10 -6 0 -7 5
-4 10 3 6 11 10 16 10 6 0 7 -4 4 -10z m163 -9 c3 -8 -4 -10 -21 -6 -17 5 -26
2 -31 -10 -3 -9 -11 -13 -17 -9 -8 5 -6 10 6 17 13 7 14 11 5 17 -7 5 2 7 21
5 18 -1 35 -8 37 -14z m220 1 c6 -18 -15 -14 -22 4 -4 10 -1 14 6 12 6 -2 14
-10 16 -16z m657 0 c-3 -3 -11 0 -18 7 -9 10 -8 11 6 5 10 -3 15 -9 12 -12z
m-819 -7 c18 -13 18 -14 -4 -8 -12 3 -25 9 -28 14 -8 14 10 11 32 -6z m133
-14 c13 -16 30 -27 38 -24 7 3 13 0 13 -6 0 -15 -16 -14 -50 4 -23 12 -30 13
-30 3 0 -17 38 -41 50 -33 6 4 10 2 10 -3 0 -6 -7 -13 -16 -16 -8 -3 -12 -10
-9 -16 3 -6 -1 -7 -10 -4 -11 5 -13 10 -5 19 8 9 4 17 -15 29 -20 13 -24 21
-15 30 5 8 8 21 4 30 -10 26 9 19 35 -13z m415 13 c3 -8 2 -12 -4 -9 -6 3 -10
10 -10 16 0 14 7 11 14 -7z m-1264 2 c0 -3 -4 -8 -10 -11 -5 -3 -10 -1 -10 4
0 6 5 11 10 11 6 0 10 -2 10 -4z m1526 -24 c-4 -3 -14 2 -24 12 -16 18 -16 18
6 6 13 -6 21 -14 18 -18z m-1586 8 c0 -5 -2 -10 -4 -10 -3 0 -8 5 -11 10 -3 6
-1 10 4 10 6 0 11 -4 11 -10z m435 0 c3 -5 1 -10 -4 -10 -6 0 -11 5 -11 10 0
6 2 10 4 10 3 0 8 -4 11 -10z m406 -4 c5 3 9 0 9 -6 0 -8 -9 -10 -25 -6 -18 5
-25 2 -25 -9 0 -8 -4 -15 -10 -15 -17 0 -11 18 12 35 14 9 24 11 26 5 2 -6 8
-8 13 -4z m549 -2 c0 -14 -28 -27 -41 -18 -5 3 -9 11 -8 17 0 9 2 9 6 0 2 -7
9 -13 15 -13 6 0 8 6 5 13 -3 8 1 14 9 14 8 0 14 -6 14 -13z m80 6 c0 -5 -4
-10 -10 -10 -5 0 -10 5 -10 10 0 6 5 10 10 10 6 0 10 -4 10 -10z m-1363 -22
c-3 -8 -6 -5 -6 6 -1 11 2 17 5 13 3 -3 4 -12 1 -19z m178 12 c3 -6 -1 -7 -9
-4 -18 7 -21 14 -7 14 6 0 13 -4 16 -10z m115 0 c0 -5 -5 -10 -11 -10 -5 0 -7
5 -4 10 3 6 8 10 11 10 2 0 4 -4 4 -10z m231 -7 c13 -16 12 -17 -3 -4 -10 7
-18 15 -18 17 0 8 8 3 21 -13z m674 7 c13 -6 15 -9 5 -9 -8 0 -22 4 -30 9 -18
12 -2 12 25 0z m235 0 c0 -5 -2 -10 -4 -10 -3 0 -8 5 -11 10 -3 6 -1 10 4 10
6 0 11 -4 11 -10z m-449 -17 c13 -16 12 -17 -3 -4 -10 7 -18 15 -18 17 0 8 8
3 21 -13z m334 7 c-3 -5 -12 -10 -18 -10 -7 0 -6 4 3 10 19 12 23 12 15 0z
m-1245 -10 c0 -5 -4 -10 -10 -10 -5 0 -10 5 -10 10 0 6 5 10 10 10 6 0 10 -4
10 -10z m425 1 c3 -5 1 -12 -5 -16 -5 -3 -10 1 -10 9 0 18 6 21 15 7z m86 -26
c5 -7 -6 -9 -32 -7 -21 2 -39 8 -39 12 0 5 9 6 20 3 13 -4 22 1 27 13 5 14 8
15 11 3 3 -7 8 -19 13 -24z m509 15 c0 -11 -4 -20 -10 -20 -5 0 -10 9 -10 20
0 11 5 20 10 20 6 0 10 -9 10 -20z m-1250 0 c0 -5 -4 -10 -10 -10 -5 0 -10 5
-10 10 0 6 5 10 10 10 6 0 10 -4 10 -10z m550 6 c0 -2 -8 -10 -17 -17 -16 -13
-17 -12 -4 4 13 16 21 21 21 13z m570 0 c0 -3 -4 -8 -10 -11 -5 -3 -10 -1 -10
4 0 6 5 11 10 11 6 0 10 -2 10 -4z m-510 -16 c0 -5 -4 -10 -10 -10 -5 0 -10 5
-10 10 0 6 5 10 10 10 6 0 10 -4 10 -10z m174 -5 c-4 -8 -8 -15 -10 -15 -2 0
-4 7 -4 15 0 8 4 15 10 15 5 0 7 -7 4 -15z m51 5 c3 -5 -1 -10 -9 -10 -9 0
-16 5 -16 10 0 6 4 10 9 10 6 0 13 -4 16 -10z m640 1 c-3 -5 -1 -12 5 -16 5
-3 10 -2 10 3 0 6 9 8 20 5 17 -5 18 -8 8 -20 -8 -10 -14 -11 -16 -4 -2 6 -7
9 -12 6 -4 -2 -15 4 -25 15 -17 19 -17 20 -1 20 9 0 15 -4 11 -9z m-1300 -11
c3 -6 -1 -7 -9 -4 -18 7 -21 14 -7 14 6 0 13 -4 16 -10z m744 -4 c9 -10 8 -15
-4 -20 -8 -3 -15 -4 -15 -2 0 3 -3 11 -6 20 -8 20 9 21 25 2z m180 -14 c9 -2
21 -4 28 -4 19 -2 6 -15 -27 -26 -18 -7 -32 -7 -35 -1 -4 5 6 9 20 9 14 0 24
4 21 9 -8 12 -30 8 -50 -8 -14 -11 -16 -11 -16 3 0 9 8 16 18 17 10 0 12 3 5
6 -7 2 -13 9 -13 15 0 6 7 5 16 -3 9 -7 23 -15 33 -17z m51 18 c0 -5 -4 -10
-9 -10 -6 0 -13 5 -16 10 -3 6 1 10 9 10 9 0 16 -4 16 -10z m125 0 c3 -5 1
-10 -4 -10 -6 0 -11 5 -11 10 0 6 2 10 4 10 3 0 8 -4 11 -10z m-390 -38 c-6
-6 -35 18 -35 29 0 5 9 1 20 -8 11 -9 17 -19 15 -21z m560 20 c-3 -3 -11 0
-18 7 -9 10 -8 11 6 5 10 -3 15 -9 12 -12z m115 8 c0 -5 -2 -10 -4 -10 -3 0
-8 5 -11 10 -3 6 -1 10 4 10 6 0 11 -4 11 -10z m95 0 c3 -5 1 -10 -4 -10 -6 0
-11 5 -11 10 0 6 2 10 4 10 3 0 8 -4 11 -10z m-1325 -10 c0 -5 -2 -10 -4 -10
-3 0 -8 5 -11 10 -3 6 -1 10 4 10 6 0 11 -4 11 -10z m500 -19 c0 -3 -11 -11
-25 -18 -14 -6 -25 -7 -25 -2 0 5 6 12 14 15 9 3 12 12 8 22 -5 15 -4 15 11 3
9 -7 17 -16 17 -20z m391 6 c-13 -13 -26 -3 -16 12 3 6 11 8 17 5 6 -4 6 -10
-1 -17z m-1134 -9 c-3 -8 -6 -5 -6 6 -1 11 2 17 5 13 3 -3 4 -12 1 -19z m173
7 c0 -8 -2 -15 -4 -15 -2 0 -6 7 -10 15 -3 8 -1 15 4 15 6 0 10 -7 10 -15z
m905 6 c3 -5 2 -12 -3 -15 -5 -3 -9 1 -9 9 0 17 3 19 12 6z m-495 -11 c0 -5
-8 -10 -17 -10 -15 0 -16 2 -3 10 19 12 20 12 20 0z m290 -22 c0 -12 -6 -9
-26 13 -19 22 -19 22 4 8 12 -8 22 -17 22 -21z m444 23 c3 -5 -1 -11 -9 -14
-9 -4 -12 -1 -8 9 6 16 10 17 17 5z m266 -1 c0 -5 -2 -10 -4 -10 -3 0 -8 5
-11 10 -3 6 -1 10 4 10 6 0 11 -4 11 -10z m-360 -10 c-13 -8 -12 -11 5 -24 11
-8 17 -17 14 -20 -3 -3 -16 3 -30 14 -19 18 -21 23 -9 30 8 6 20 10 25 10 6 0
3 -5 -5 -10z m-266 -21 c-3 -5 6 -9 20 -9 14 0 26 5 26 10 0 6 16 10 35 10 24
0 33 -4 29 -13 -2 -7 4 -23 14 -35 22 -25 34 -29 26 -8 -4 11 0 13 14 9 11 -2
23 0 26 6 4 7 1 8 -8 5 -9 -3 -16 -1 -16 5 0 13 49 14 70 1 8 -5 11 -12 7 -17
-5 -4 -12 -1 -17 7 -13 21 -12 3 1 -21 6 -12 7 -28 3 -37 -4 -9 -6 -21 -5 -25
1 -5 -7 -6 -18 -2 -11 3 -22 1 -26 -5 -3 -5 -16 -10 -28 -9 -22 0 -22 0 1 10
13 5 20 13 17 19 -4 6 -12 5 -21 -5 -16 -16 -69 -21 -60 -6 3 5 -9 12 -28 15
-48 9 -116 -17 -199 -74 -72 -51 -93 -54 -103 -14 -10 39 4 72 41 97 33 22 34
25 19 45 -9 13 -13 28 -11 35 3 7 6 5 6 -5 1 -10 3 -18 5 -18 2 0 12 -3 22 -7
13 -5 16 -3 11 10 -3 9 -2 17 3 17 6 0 10 -4 10 -9 0 -14 40 -20 63 -10 19 8
18 9 -5 4 -18 -3 -28 -1 -28 6 0 7 3 9 7 6 3 -4 12 -2 20 4 7 6 13 8 13 3 0
-5 5 -2 10 6 8 13 10 13 10 -1 0 -9 7 -16 15 -16 10 0 12 4 5 12 -5 7 -7 14
-4 18 9 9 35 -4 28 -14z m161 11 c-3 -5 -14 -10 -23 -9 -14 0 -13 2 3 9 27 11
27 11 20 0z m-1012 -25 c-3 -9 -8 -14 -10 -11 -3 3 -2 9 2 15 9 16 15 13 8 -4z
m261 0 c-4 -8 -11 -12 -16 -9 -6 4 -5 10 3 15 19 12 19 11 13 -6z m86 -7 c0
-6 -6 -5 -15 2 -8 7 -15 14 -15 16 0 2 7 1 15 -2 8 -4 15 -11 15 -16z m212 0
c-6 -6 -15 -8 -19 -4 -4 4 -1 11 7 16 19 12 27 3 12 -12z m-247 2 c3 -6 -1 -7
-9 -4 -18 7 -21 14 -7 14 6 0 13 -4 16 -10z m682 4 c-3 -3 -12 -4 -19 -1 -8 3
-5 6 6 6 11 1 17 -2 13 -5z m193 -4 c0 -5 -2 -10 -4 -10 -3 0 -8 5 -11 10 -3
6 -1 10 4 10 6 0 11 -4 11 -10z m-770 -4 c0 -3 -4 -8 -10 -11 -5 -3 -10 -1
-10 4 0 6 5 11 10 11 6 0 10 -2 10 -4z m895 -6 c3 -5 2 -10 -4 -10 -5 0 -13 5
-16 10 -3 6 -2 10 4 10 5 0 13 -4 16 -10z m75 -10 c0 -5 -2 -10 -4 -10 -3 0
-8 5 -11 10 -3 6 -1 10 4 10 6 0 11 -4 11 -10z m-1890 -10 c0 -5 -4 -10 -10
-10 -5 0 -10 5 -10 10 0 6 5 10 10 10 6 0 10 -4 10 -10z m775 -10 c-3 -5 -12
-10 -18 -10 -7 0 -6 4 3 10 19 12 23 12 15 0z m861 -6 c-4 -9 -1 -23 6 -32 12
-13 11 -14 -8 -2 -21 13 -22 50 -2 50 6 0 7 -7 4 -16z m-618 -29 c-3 -3 -9 2
-12 12 -6 14 -5 15 5 6 7 -7 10 -15 7 -18z m-75 -10 c-3 -9 -8 -14 -10 -11 -3
3 -2 9 2 15 9 16 15 13 8 -4z m-703 -5 c0 -5 -6 -10 -14 -10 -8 0 -18 5 -21
10 -3 6 3 10 14 10 12 0 21 -4 21 -10z m150 -11 c0 -6 -4 -7 -10 -4 -5 3 -10
11 -10 16 0 6 5 7 10 4 6 -3 10 -11 10 -16z m173 -15 c-10 -7 -22 -14 -27 -14
-6 0 -2 6 9 13 12 9 15 19 10 28 -8 12 -6 12 8 0 16 -13 16 -14 0 -27z m1280
16 c-3 -11 -7 -20 -9 -20 -2 0 -4 9 -4 20 0 11 4 20 9 20 5 0 7 -9 4 -20z
m-208 0 c3 -5 2 -10 -4 -10 -5 0 -13 5 -16 10 -3 6 -2 10 4 10 5 0 13 -4 16
-10z m55 -10 c0 -5 -2 -10 -4 -10 -3 0 -8 5 -11 10 -3 6 -1 10 4 10 6 0 11 -4
11 -10z m371 -7 c13 -16 12 -17 -3 -4 -10 7 -18 15 -18 17 0 8 8 3 21 -13z
m-498 0 c-20 -7 -15 -23 6 -23 26 0 34 -15 21 -40 -9 -16 -8 -20 5 -20 9 0 18
-7 21 -15 4 -8 10 -15 16 -15 5 0 6 5 3 10 -3 6 -2 10 3 10 17 0 21 -12 9 -31
-15 -25 -2 -35 19 -15 9 9 17 16 18 14 1 -2 10 -14 21 -28 l20 -25 -23 20 -23
19 5 -29 c5 -29 4 -29 -10 -10 -13 17 -16 18 -24 5 -8 -12 -10 -11 -10 5 -1
19 -1 19 -11 2 -7 -12 -17 -16 -30 -12 -11 4 -19 2 -19 -4 0 -6 5 -11 10 -11
6 0 10 -7 10 -15 0 -9 9 -15 23 -15 17 0 19 2 7 10 -8 5 -11 12 -7 16 4 4 13
2 19 -4 9 -9 9 -15 0 -24 -20 -20 -14 -26 23 -24 19 2 32 -1 29 -5 -3 -5 10
-9 29 -9 27 0 42 -8 66 -35 17 -20 32 -43 33 -53 3 -40 3 -80 -1 -76 -2 2 -10
-1 -18 -8 -11 -9 -12 -7 -4 16 10 26 10 26 -38 26 -31 0 -53 5 -61 15 -7 8
-18 15 -26 15 -18 0 -38 37 -23 42 15 5 2 48 -14 45 -7 -1 -15 -6 -19 -12 -5
-6 -8 -6 -8 2 0 6 5 15 10 18 8 5 7 11 0 21 -10 11 -16 11 -35 -2 -24 -16 -45
-12 -45 8 0 6 9 8 20 5 29 -7 33 7 9 34 -14 17 -22 20 -25 12 -8 -19 -37 -16
-30 2 3 9 0 15 -10 15 -8 0 -12 5 -9 10 3 6 1 10 -5 10 -6 0 -8 5 -5 10 3 6 1
10 -4 10 -15 0 -14 27 2 34 6 3 2 3 -10 0 -29 -7 -30 2 -3 16 16 9 28 7 52 -4
31 -16 53 -13 42 5 -3 6 -13 8 -21 5 -8 -3 -11 -1 -8 5 4 5 15 7 25 4 14 -5
18 -1 17 14 -1 16 -4 18 -16 8 -11 -9 -15 -9 -18 1 -3 6 -17 12 -31 13 -24 0
-25 1 -7 9 14 6 16 9 5 10 -8 1 -4 6 10 10 28 9 63 12 43 3z m32 -3 c3 -5 1
-10 -4 -10 -6 0 -11 5 -11 10 0 6 2 10 4 10 3 0 8 -4 11 -10z m-1075 -10 c0
-5 -5 -10 -11 -10 -5 0 -7 5 -4 10 3 6 8 10 11 10 2 0 4 -4 4 -10z m90 0 c0
-5 -2 -10 -4 -10 -3 0 -8 5 -11 10 -3 6 -1 10 4 10 6 0 11 -4 11 -10z m812
-63 c25 -39 69 -110 96 -157 28 -47 69 -110 91 -140 23 -30 41 -57 41 -60 0
-3 -33 -22 -73 -43 -67 -35 -73 -36 -85 -20 -74 99 -252 383 -252 403 0 22 10
31 63 57 34 18 64 32 67 32 3 1 26 -32 52 -72z m589 50 c-10 -9 -11 -8 -5 6 3
10 9 15 12 12 3 -3 0 -11 -7 -18z m-1320 -20 c-10 -9 -11 -8 -5 6 3 10 9 15
12 12 3 -3 0 -11 -7 -18z m1103 7 c3 -8 2 -12 -4 -9 -6 3 -10 10 -10 16 0 14
7 11 14 -7z m-1549 -5 c11 -16 1 -19 -13 -3 -7 8 -8 14 -3 14 5 0 13 -5 16
-11z m1410 1 c3 -5 1 -10 -4 -10 -6 0 -11 5 -11 10 0 6 2 10 4 10 3 0 8 -4 11
-10z m-770 -20 c-10 -11 -21 -18 -23 -15 -3 3 3 12 14 20 27 20 30 18 9 -5z
m640 9 c10 -14 1 -21 -19 -13 -9 3 -13 10 -10 15 7 12 21 11 29 -2z m-1145 -3
c0 -3 -4 -8 -10 -11 -5 -3 -10 -1 -10 4 0 6 5 11 10 11 6 0 10 -2 10 -4z
m1256 -11 c19 -14 19 -14 -2 -15 -12 0 -24 7 -28 15 -7 19 5 19 30 0z m241 -1
c-3 -3 -12 -4 -19 -1 -8 3 -5 6 6 6 11 1 17 -2 13 -5z m-1496 -31 c-12 -20
-14 -14 -5 12 4 9 9 14 11 11 3 -2 0 -13 -6 -23z m109 17 c0 -5 -2 -10 -4 -10
-3 0 -8 5 -11 10 -3 6 -1 10 4 10 6 0 11 -4 11 -10z m-60 -10 c0 -5 -5 -10
-11 -10 -5 0 -7 5 -4 10 3 6 8 10 11 10 2 0 4 -4 4 -10z m540 0 c0 -5 -5 -10
-11 -10 -5 0 -7 5 -4 10 3 6 8 10 11 10 2 0 4 -4 4 -10z m-810 -12 c0 -4 -4
-8 -9 -8 -6 0 -12 4 -15 8 -3 5 1 9 9 9 8 0 15 -4 15 -9z m45 2 c3 -6 -1 -7
-9 -4 -18 7 -21 14 -7 14 6 0 13 -4 16 -10z m291 -18 c-4 -3 -14 2 -24 12 -16
18 -16 18 6 6 13 -6 21 -14 18 -18z m1194 24 c0 -3 -4 -8 -10 -11 -5 -3 -10
-1 -10 4 0 6 5 11 10 11 6 0 10 -2 10 -4z m-1400 -10 c0 -3 -4 -8 -10 -11 -5
-3 -10 -1 -10 4 0 6 5 11 10 11 6 0 10 -2 10 -4z m1427 -18 c-3 -8 -6 -5 -6 6
-1 11 2 17 5 13 3 -3 4 -12 1 -19z m-1357 -3 c0 -8 -4 -15 -10 -15 -5 0 -7 7
-4 15 4 8 8 15 10 15 2 0 4 -7 4 -15z m60 11 c0 -3 -4 -8 -10 -11 -5 -3 -10
-1 -10 4 0 6 5 11 10 11 6 0 10 -2 10 -4z m37 -14 c-18 -4 -18 -4 0 -25 15
-18 15 -19 1 -8 -9 7 -23 9 -29 5 -7 -4 -10 -3 -7 2 3 5 8 17 11 26 4 12 12
15 24 11 17 -7 17 -8 0 -11z m253 8 c0 -5 -4 -10 -10 -10 -5 0 -10 5 -10 10 0
6 5 10 10 10 6 0 10 -4 10 -10z m296 -4 c10 -8 16 -18 11 -22 -4 -4 -13 1 -21
11 -12 16 -16 17 -30 6 -9 -8 -16 -9 -16 -3 0 9 14 19 31 21 3 1 14 -5 25 -13z
m-716 -28 c0 -6 -6 -5 -15 2 -8 7 -15 14 -15 16 0 2 7 1 15 -2 8 -4 15 -11 15
-16z m815 -15 c-5 -33 -17 -200 -17 -225 1 -10 -6 -18 -14 -18 -12 0 -13 -4
-4 -22 9 -20 9 -21 -2 -7 -7 9 -24 21 -37 28 -19 10 -21 15 -10 22 11 7 11 9
-3 9 -21 0 -37 -26 -31 -54 3 -20 3 -20 -5 -1 -5 11 -7 26 -4 34 4 10 -1 12
-16 6 -13 -4 -22 -2 -22 4 0 6 3 10 8 10 27 -5 34 3 12 14 -23 12 -25 11 -30
-13 -5 -19 -11 -24 -30 -22 -20 2 -22 0 -10 -8 13 -8 12 -10 -2 -10 -10 0 -18
5 -18 11 0 6 -6 9 -12 6 -7 -2 -12 -9 -11 -15 4 -18 -21 -3 -36 21 l-14 22 23
-20 23 -20 -7 25 c-4 14 -4 21 1 15 4 -5 14 -11 21 -13 10 -2 10 2 2 19 -14
26 -10 30 32 32 25 2 32 6 30 20 -3 19 14 23 21 5 3 -7 6 -1 6 15 1 15 -3 27
-9 27 -5 0 -7 7 -4 15 4 8 -1 17 -10 21 -9 3 -16 13 -16 21 0 11 6 7 20 -10
11 -14 20 -29 20 -34 0 -6 7 -10 15 -10 18 0 20 18 3 35 -8 8 -8 12 -1 12 6 0
14 -7 17 -16 3 -8 10 -12 16 -9 6 4 8 10 5 15 -10 16 12 19 31 5 16 -12 17
-14 3 -15 -20 0 -33 -27 -13 -27 8 0 12 3 9 5 -3 3 2 10 11 17 15 10 15 13 0
27 -9 9 -16 22 -16 28 0 7 6 5 16 -4 8 -9 19 -16 24 -16 15 0 21 18 9 26 -8 4
-9 3 -5 -4 4 -7 2 -12 -3 -12 -17 0 -13 18 7 29 9 6 11 11 5 11 -21 0 -14 20
7 20 16 0 19 -5 15 -27z m-134 -1 c-7 -2 -18 1 -23 6 -8 8 -4 9 13 5 13 -4 18
-8 10 -11z m-241 -2 c0 -5 -7 -10 -16 -10 -8 0 -12 5 -9 10 3 6 10 10 16 10 5
0 9 -4 9 -10z m286 -17 c-7 -7 -26 7 -26 19 0 6 6 6 15 -2 9 -7 13 -15 11 -17z
m1328 6 c-3 -5 -10 -7 -15 -3 -5 3 -7 10 -3 15 3 5 10 7 15 3 5 -3 7 -10 3
-15z m-1397 -5 c-3 -3 -12 -4 -19 -1 -8 3 -5 6 6 6 11 1 17 -2 13 -5z m33 -4
c0 -5 -4 -10 -10 -10 -5 0 -10 5 -10 10 0 6 5 10 10 10 6 0 10 -4 10 -10z
m-510 -5 c0 -7 -30 -13 -34 -7 -3 4 4 9 15 9 10 1 19 0 19 -2z m303 -7 c-4 -7
-8 -16 -8 -20 0 -14 -15 -21 -15 -7 0 8 5 20 12 27 16 16 21 15 11 0z m787
-12 c0 -2 -7 -6 -15 -10 -8 -3 -15 -1 -15 4 0 6 7 10 15 10 8 0 15 -2 15 -4z
m185 -6 c3 -5 1 -10 -4 -10 -6 0 -11 5 -11 10 0 6 2 10 4 10 3 0 8 -4 11 -10z
m-851 -16 c9 -24 2 -26 -12 -4 -7 11 -8 20 -3 20 5 0 12 -7 15 -16z m830 1 c3
-8 1 -15 -4 -15 -6 0 -10 7 -10 15 0 8 2 15 4 15 2 0 6 -7 10 -15z m-1153 -28
c-10 -9 -11 -8 -5 6 3 10 9 15 12 12 3 -3 0 -11 -7 -18z m-388 -12 c78 -9 177
-24 221 -35 43 -11 83 -17 89 -13 5 3 7 1 3 -5 -8 -13 48 -27 66 -16 7 4 10 3
5 -1 -6 -7 43 -27 248 -100 16 -5 17 -5 5 4 -13 9 -13 11 3 11 9 0 17 -6 17
-14 0 -8 4 -17 9 -20 15 -9 40 4 35 19 -3 7 4 15 14 17 23 6 62 -39 61 -69 0
-17 -1 -17 -7 -1 -5 12 -11 14 -21 9 -11 -7 -6 -13 19 -26 34 -17 121 -77 220
-149 150 -110 338 -322 455 -515 60 -99 219 -339 256 -386 25 -33 58 -79 73
-103 15 -23 43 -61 63 -83 35 -39 37 -40 87 -34 28 4 73 11 100 16 68 13 163
11 281 -5 108 -14 283 -77 392 -140 32 -18 79 -45 104 -59 178 -100 417 -382
500 -587 58 -144 67 -317 24 -465 -24 -83 -73 -200 -80 -193 -2 2 11 42 30 88
45 112 64 269 47 388 -9 64 -20 97 -52 153 -22 39 -37 76 -33 82 3 7 3 9 -1 5
-8 -7 -46 26 -46 40 0 5 -12 19 -26 33 -14 13 -37 45 -51 71 -15 27 -30 48
-35 48 -5 0 -7 8 -3 19 4 13 0 20 -17 24 -13 4 -26 1 -30 -6 -5 -8 -8 -6 -8 7
0 13 -5 17 -20 13 -11 -3 -18 -1 -14 4 3 5 -2 9 -10 9 -9 0 -16 7 -16 16 0 8
-3 13 -8 11 -4 -3 -21 6 -37 20 -134 110 -219 175 -234 178 -10 2 -40 15 -67
28 -134 68 -483 147 -648 147 l-80 0 -58 63 c-32 34 -58 56 -58 50 0 -7 5 -13
10 -13 6 0 10 -5 10 -12 0 -6 -9 -3 -20 7 -11 10 -18 20 -16 23 3 2 -7 28 -21
56 -24 48 -27 50 -36 29 -6 -13 -14 -23 -19 -23 -5 0 -2 13 7 30 14 27 14 29
-2 23 -11 -4 -14 -3 -9 5 4 7 3 12 -2 12 -6 0 -12 11 -16 24 -7 27 -82 139
-123 183 -15 17 -34 38 -42 48 -11 14 -15 15 -23 3 -7 -9 -8 -3 -4 18 4 24 -1
37 -24 61 -38 40 -70 51 -82 28 -9 -14 -13 -12 -34 19 -14 20 -22 40 -19 45 6
11 -26 71 -38 71 -9 0 -1 -17 21 -43 8 -9 13 -20 10 -23 -3 -3 -16 12 -29 33
-76 124 -183 235 -334 348 -258 192 -604 336 -878 365 -56 6 -147 16 -202 23
-194 23 -555 10 -742 -29 -133 -27 -449 -136 -709 -244 -80 -33 -152 -59 -158
-57 -6 2 -21 -4 -34 -14 -13 -10 -72 -37 -130 -59 -59 -23 -133 -52 -166 -66
-56 -24 -58 -24 -53 -4 4 16 2 18 -11 11 -10 -4 -23 -6 -29 -4 -7 3 -29 -5
-48 -17 -20 -12 -44 -20 -55 -17 -13 3 -17 1 -13 -9 3 -10 -3 -14 -20 -14 -14
0 -33 -3 -43 -7 -12 -4 -15 -3 -10 5 10 17 -10 15 -28 -3 -8 -8 -22 -15 -31
-15 -21 0 -97 -39 -113 -59 -8 -9 -11 -10 -7 -3 3 6 5 12 3 12 -2 0 -78 -32
-169 -71 -306 -133 -533 -228 -536 -225 -4 3 201 96 437 198 63 28 165 73 225
100 61 27 220 96 355 153 135 56 288 122 340 145 578 257 939 372 1280 409
131 14 462 12 613 -4z m517 11 c0 -3 -4 -8 -10 -11 -5 -3 -10 -1 -10 4 0 6 5
11 10 11 6 0 10 -2 10 -4z m144 -34 c2 -4 -5 -9 -17 -9 -17 -2 -19 0 -7 7 18
12 18 12 24 2z m63 -17 c0 -22 -14 -18 -20 4 -3 13 0 18 7 15 7 -3 13 -11 13
-19z m-33 6 c3 -5 -1 -11 -9 -14 -9 -4 -12 -1 -8 9 6 16 10 17 17 5z m-44 -21
c0 -5 -5 -10 -11 -10 -5 0 -7 5 -4 10 3 6 8 10 11 10 2 0 4 -4 4 -10z m-50
-10 c0 -5 -5 -10 -11 -10 -5 0 -7 5 -4 10 3 6 8 10 11 10 2 0 4 -4 4 -10z
m-25 -69 c-6 -5 -25 10 -25 20 0 5 6 4 14 -3 8 -7 12 -15 11 -17z m29 14 c-4
-8 -8 -15 -10 -15 -2 0 -4 7 -4 15 0 8 4 15 10 15 5 0 7 -7 4 -15z m174 -33
c6 -18 -15 -14 -22 4 -4 10 -1 14 6 12 6 -2 14 -10 16 -16z m62 -3 c0 -11 -4
-17 -10 -14 -5 3 -10 13 -10 21 0 8 5 14 10 14 6 0 10 -9 10 -21z m-150 -14
c0 -8 -4 -15 -10 -15 -5 0 -10 7 -10 15 0 8 5 15 10 15 6 0 10 -7 10 -15z
m945 -15 c3 -5 -3 -10 -15 -10 -12 0 -18 5 -15 10 3 6 10 10 15 10 5 0 12 -4
15 -10z m-1895 -10 c370 -38 626 -110 844 -236 370 -214 571 -417 741 -746 11
-21 22 -38 26 -38 4 0 9 -8 12 -17 3 -10 20 -40 36 -68 17 -27 44 -77 61 -110
17 -33 37 -67 45 -75 25 -29 45 -79 45 -114 0 -30 -6 -39 -42 -64 -24 -16 -61
-37 -83 -48 -22 -10 -43 -22 -46 -27 -3 -5 -22 26 -42 67 -20 42 -60 110 -89
152 -45 65 -53 72 -60 54 -4 -11 -14 -20 -23 -20 -8 0 -15 -5 -15 -10 0 -6
-13 -9 -29 -8 -25 2 -34 12 -66 71 -20 37 -39 66 -42 63 -5 -4 28 -62 194
-340 51 -86 63 -116 44 -116 -18 0 -99 -81 -105 -105 -9 -36 -22 -31 -52 23
-63 109 -246 397 -341 537 -121 178 -142 205 -111 146 13 -25 31 -54 41 -65
17 -20 23 -46 9 -46 -4 0 -12 8 -19 19 -13 21 -53 35 -53 18 0 -7 -30 20 -67
58 -37 39 -56 57 -44 40 45 -60 231 -349 348 -540 92 -149 133 -227 133 -251
0 -10 -32 -48 -71 -84 l-71 -67 -52 81 c-29 45 -72 117 -96 161 -73 132 -288
445 -365 530 -223 246 -391 361 -648 444 -163 53 -284 71 -474 71 -119 0 -181
-5 -295 -26 -189 -34 -284 -67 -478 -164 -132 -66 -174 -93 -234 -148 -40 -37
-101 -87 -135 -112 -35 -25 -89 -66 -120 -91 -97 -80 -181 -117 -164 -74 3 8
0 15 -6 15 -15 0 -14 21 4 56 34 67 362 379 452 430 26 15 84 50 127 77 111
70 265 141 371 170 266 76 546 107 776 88 171 -15 208 -22 359 -67 63 -19 122
-37 130 -40 8 -2 5 4 -7 15 -22 18 -207 83 -276 96 -20 4 -40 11 -43 16 -3 5
-86 9 -184 9 -103 0 -180 4 -182 9 -2 6 -57 10 -123 10 -66 0 -132 0 -147 0
-16 0 -28 -4 -28 -10 0 -6 -4 -8 -9 -5 -21 14 -196 -25 -326 -72 -268 -98
-315 -121 -533 -264 -137 -90 -241 -180 -341 -295 -73 -84 -101 -106 -227
-181 -40 -24 -80 -52 -89 -62 -11 -12 -31 -20 -51 -20 -28 0 -39 7 -65 42 -33
47 -34 81 -2 142 23 44 116 139 203 207 41 33 100 79 130 104 30 25 59 45 64
45 11 0 102 78 177 151 28 27 77 67 109 89 32 22 83 62 114 88 98 86 381 210
780 343 79 26 363 82 471 92 86 8 228 7 325 -3z m1857 -52 c-3 -8 -6 -5 -6 6
-1 11 2 17 5 13 3 -3 4 -12 1 -19z m98 -396 c-3 -3 -11 0 -18 7 -9 10 -8 11 6
5 10 -3 15 -9 12 -12z m-4148 -58 c-9 -9 -28 6 -21 18 4 6 10 6 17 -1 6 -6 8
-13 4 -17z m-810 -311 c-4 -3 -35 -18 -69 -33 -160 -69 -302 -132 -405 -178
-62 -28 -115 -47 -118 -42 -5 8 46 34 130 66 28 10 140 58 250 106 190 82 227
97 212 81z m563 -107 c0 -2 -7 -7 -16 -10 -8 -3 -12 -2 -9 4 6 10 25 14 25 6z
m2545 -206 c10 -11 16 -20 13 -20 -3 0 -13 9 -23 20 -10 11 -16 20 -13 20 3 0
13 -9 23 -20z m56 -47 c13 -16 12 -17 -3 -4 -10 7 -18 15 -18 17 0 8 8 3 21
-13z m-3512 -68 c0 -5 -8 6 -19 25 -11 19 -19 40 -19 45 0 6 8 -6 19 -25 11
-19 19 -39 19 -45z m5328 23 c-3 -8 -6 -5 -6 6 -1 11 2 17 5 13 3 -3 4 -12 1
-19z m423 -54 c0 -3 -6 -1 -14 5 -7 6 -21 9 -30 5 -9 -3 -16 -1 -16 6 0 6 4 9
9 5 5 -3 12 -1 16 5 6 10 35 -11 35 -26z m-432 -39 c-3 -3 -9 2 -12 12 -6 14
-5 15 5 6 7 -7 10 -15 7 -18z m-3568 6 c0 -12 183 -326 347 -596 286 -471 478
-798 653 -1110 61 -110 114 -202 116 -204 6 -6 222 69 324 114 112 49 266 141
400 237 52 38 77 53 55 33 -70 -63 -288 -203 -406 -260 -96 -45 -356 -145
-381 -145 -4 0 -26 37 -50 83 -66 125 -161 289 -391 672 -116 193 -238 397
-272 455 -34 58 -107 180 -163 271 -92 153 -252 440 -252 453 0 3 5 6 10 6 6
0 10 -4 10 -9z m2149 -61 c30 -27 58 -47 62 -44 5 3 9 -3 9 -14 0 -10 3 -22 7
-26 7 -7 9 -12 19 -66 3 -19 11 -38 16 -41 6 -4 8 -26 3 -58 -5 -38 -13 -54
-28 -63 -12 -6 -23 -11 -25 -10 -32 19 -62 31 -62 26 0 -4 -25 33 -56 82 -31
49 -66 103 -78 119 -30 39 -52 86 -50 105 1 8 2 21 3 28 1 8 21 12 64 12 61 0
63 -1 116 -50z m2001 -145 c177 -37 306 -96 411 -188 40 -34 100 -84 135 -110
71 -54 127 -124 149 -187 16 -45 20 -94 8 -88 -5 2 -55 27 -113 55 -160 80
-244 97 -470 97 -168 0 -194 -3 -280 -26 -105 -29 -255 -95 -346 -153 -91 -58
-279 -213 -384 -316 -90 -88 -334 -388 -444 -544 -65 -92 -107 -142 -273 -322
-263 -286 -558 -519 -810 -641 -34 -16 -77 -39 -95 -50 -69 -41 -214 -80 -275
-73 -8 0 -13 15 -13 34 0 24 3 28 10 17 8 -12 10 -11 10 8 0 13 6 22 15 22 8
0 15 9 15 20 0 12 7 20 18 20 14 0 15 2 2 10 -16 10 -15 11 15 29 l20 13 -20
-8 c-200 -74 -418 -141 -550 -169 -72 -16 -318 -35 -441 -35 -103 0 -311 22
-471 50 -293 52 -602 185 -807 348 -87 69 -191 175 -241 245 -108 152 -178
272 -183 314 -5 51 13 60 22 11 27 -143 246 -422 446 -571 361 -267 932 -406
1465 -357 215 20 377 60 650 162 171 64 385 175 517 268 159 113 359 273 390
314 18 22 64 75 103 116 148 155 273 326 390 529 l48 83 -2 89 c-2 105 -14
148 -37 129 -13 -11 -107 -149 -326 -479 -118 -178 -133 -196 -257 -336 -15
-16 -37 -45 -50 -63 -13 -18 -26 -31 -29 -28 -2 3 1 14 9 23 12 16 11 15 -8
-1 -13 -10 -20 -23 -17 -27 3 -5 -3 -9 -13 -9 -10 0 -47 -25 -83 -56 -117
-102 -505 -343 -641 -398 -24 -10 -80 -27 -124 -37 -44 -11 -98 -26 -120 -33
-140 -49 -307 -74 -545 -82 -198 -8 -356 9 -502 51 -46 13 -94 26 -108 29
-112 22 -140 28 -195 45 -79 25 -227 100 -200 101 17 1 17 3 -5 11 -14 6 -25
9 -26 7 0 -2 -9 4 -19 12 -14 11 -19 12 -22 3 -3 -9 -14 -7 -41 7 -59 31 -74
47 -68 67 5 15 0 19 -21 21 -15 1 -45 14 -68 29 -61 41 -206 195 -245 260 -19
32 -46 71 -61 86 -46 48 -34 62 57 65 43 2 81 6 84 11 3 4 18 11 33 15 l28 7
-43 48 c-24 26 -58 70 -77 97 -29 42 -24 38 37 -27 195 -209 485 -399 742
-487 306 -105 637 -150 895 -123 310 33 561 104 850 241 117 56 321 198 465
325 148 130 417 447 517 610 78 126 155 218 229 272 37 26 83 62 103 79 20 17
79 63 131 102 52 39 118 90 145 112 58 47 230 153 330 203 198 98 485 142 675
102z m-4352 -41 c18 -14 40 -37 49 -52 9 -15 31 -45 48 -67 18 -22 52 -76 77
-120 25 -44 71 -120 102 -169 31 -49 56 -93 56 -98 0 -4 22 -43 49 -87 27 -43
66 -111 86 -152 21 -41 50 -92 65 -114 62 -92 300 -561 319 -632 7 -24 7 -41
1 -47 -6 -6 -10 -18 -10 -28 0 -10 -13 -24 -29 -32 -45 -24 -38 -34 -316 444
-92 159 -147 248 -305 500 -30 47 -72 119 -95 160 -73 132 -237 414 -267 458
-17 24 -27 46 -23 50 4 4 23 12 43 18 47 13 106 1 150 -32z m-184 -249 c29
-44 82 -132 116 -195 35 -63 111 -198 170 -300 59 -102 115 -201 125 -220 10
-19 46 -80 80 -135 93 -148 319 -569 281 -521 -9 11 -16 25 -16 30 0 6 -4 5
-9 -2 -4 -7 -14 -14 -22 -15 -8 -2 -31 -12 -50 -23 -48 -28 -69 -18 -111 53
-19 32 -81 137 -138 233 -57 96 -163 274 -235 395 -73 121 -167 281 -210 355
-43 74 -99 171 -125 215 -64 109 -73 135 -61 168 6 15 17 27 25 27 7 0 20 9
27 20 8 12 24 22 37 23 15 1 21 6 17 17 -8 24 41 -38 99 -125z m-274 -207 c0
23 36 -5 50 -40 8 -18 39 -76 70 -128 31 -52 74 -126 95 -165 21 -38 54 -97
75 -130 39 -64 127 -219 154 -271 14 -28 14 -33 1 -44 -8 -7 -15 -18 -15 -25
0 -7 -7 -18 -15 -25 -8 -7 -15 -23 -15 -36 0 -20 -5 -24 -29 -24 -25 0 -28 3
-23 22 4 18 2 20 -16 16 -12 -3 -21 -3 -20 1 1 3 -19 39 -45 78 -25 40 -60 96
-78 125 -17 29 -52 88 -77 130 -26 42 -63 105 -82 140 -19 34 -49 84 -67 110
-18 27 -52 87 -77 133 -46 89 -47 86 5 90 9 0 24 7 34 15 32 27 59 37 67 26 5
-7 8 -7 8 2z m5230 -58 c30 -6 102 -34 160 -62 157 -76 250 -179 250 -276 0
-46 -15 -92 -29 -92 -5 0 -38 25 -73 55 -121 106 -263 155 -452 155 -136 0
-233 -22 -384 -85 -217 -91 -340 -183 -578 -432 -168 -175 -209 -220 -284
-318 -166 -215 -409 -468 -490 -510 -76 -39 -73 -38 -66 -20 5 15 4 16 -9 5
-9 -7 -19 -10 -22 -6 -4 4 -1 11 7 16 12 8 9 10 -10 10 -39 0 -70 11 -64 22
18 28 -51 -24 -122 -93 -75 -73 -84 -84 -61 -80 25 4 -12 -23 -58 -44 -30 -13
-60 -33 -67 -44 -7 -12 -18 -21 -23 -21 -6 0 -40 -22 -77 -50 -90 -68 -273
-166 -496 -267 -280 -126 -385 -166 -582 -221 -278 -79 -530 -106 -758 -83
-286 28 -332 35 -407 56 -44 13 -118 33 -165 44 -144 37 -254 80 -372 148 -62
36 -133 77 -158 91 -60 34 -148 102 -185 143 -33 37 -34 37 80 -47 308 -229
638 -352 1100 -409 460 -57 926 53 1580 376 210 103 248 126 417 247 223 160
575 524 753 777 133 189 370 490 450 570 251 252 500 392 810 454 62 13 311 7
385 -9z m18 -344 c141 -31 322 -154 322 -220 0 -39 -35 -97 -75 -125 l-34 -23
-62 41 c-85 57 -151 74 -279 74 -224 -1 -396 -74 -686 -291 -44 -33 -133 -110
-198 -171 -73 -69 -122 -108 -126 -101 -5 8 -11 7 -22 -3 -10 -10 -19 -12 -31
-5 -13 7 -17 5 -18 -9 0 -16 -1 -16 -9 2 -5 11 -9 15 -9 8 -1 -18 -48 8 -62
34 -7 12 -16 20 -20 17 -5 -3 -18 -7 -29 -9 -24 -5 -19 7 16 45 13 14 54 61
92 105 304 352 628 582 889 629 101 18 261 19 341 2z m-6049 -221 c-1 -30 -6
-52 -10 -49 -5 3 -9 -3 -9 -14 0 -38 -86 -109 -126 -104 -24 3 -54 -30 -54
-59 0 -9 -7 -19 -15 -23 -8 -3 -15 -13 -15 -23 0 -10 -7 -38 -16 -63 -9 -25
-22 -72 -29 -105 -21 -96 -17 -37 5 75 23 116 129 385 140 354 6 -15 10 -13
30 14 13 18 30 32 37 32 7 0 13 5 13 10 0 6 11 10 25 10 24 0 25 -3 24 -55z
m1286 -186 c9 -17 15 -33 13 -35 -3 -2 -12 12 -21 31 -21 43 -13 47 8 4z
m5055 -3 c0 -2 -12 -11 -27 -20 l-28 -17 24 20 c23 21 31 25 31 17z m-337 -47
l29 -16 -24 -14 c-12 -9 -72 -35 -133 -59 -60 -24 -252 -114 -425 -201 -173
-87 -327 -163 -342 -168 -38 -14 -35 3 5 28 17 11 85 76 149 144 119 126 193
184 318 247 36 18 85 39 110 46 62 18 275 13 313 -7z m222 -29 c-3 -5 -12 -10
-18 -10 -7 0 -6 4 3 10 19 12 23 12 15 0z m-6351 -110 c-13 -52 -21 -75 -18
-50 6 50 33 154 39 149 2 -2 -8 -47 -21 -99z m500 -89 c-6 -6 -24 19 -24 34 1
6 7 1 15 -9 8 -11 12 -22 9 -25z m-527 -53 c-3 -7 -5 -2 -5 12 0 14 2 19 5 13
2 -7 2 -19 0 -25z m-140 -40 c-2 -13 -4 -5 -4 17 -1 22 1 32 4 23 2 -10 2 -28
0 -40z m142 -30 c0 -33 -2 -38 -9 -23 -12 28 -12 65 0 65 6 0 10 -19 9 -42z
m7138 -50 c109 -75 279 -203 287 -216 3 -5 -17 -19 -44 -30 -43 -18 -50 -19
-61 -6 -26 32 -47 35 -115 18 l-66 -17 7 -43 c5 -38 4 -43 -17 -49 -13 -4 -31
-14 -40 -22 -15 -14 -18 -11 -28 29 -6 23 -13 49 -16 57 -10 30 -45 315 -40
328 10 25 42 13 133 -49z m-1477 21 c-8 -5 -80 -42 -160 -81 -195 -96 -220
-108 -220 -103 0 6 372 194 385 194 6 1 3 -4 -5 -10z m-5631 -239 c22 -93 36
-186 23 -157 -4 10 -12 17 -17 15 -12 -4 -22 41 -24 105 0 26 -6 47 -11 47 -6
0 -10 6 -9 13 1 6 1 23 0 37 -1 21 -3 22 -12 10 -8 -11 -9 5 -5 59 9 100 20
111 27 26 4 -38 16 -108 28 -155z m6758 102 c13 -31 12 -33 -27 -60 -21 -15
-39 -33 -40 -40 0 -17 39 -74 124 -180 68 -85 73 -96 55 -122 -8 -11 -9 -7 -4
18 8 37 3 39 -34 12 l-28 -19 -54 65 c-47 56 -95 125 -135 190 -10 17 -13 16
-58 -9 -27 -15 -50 -27 -51 -27 -5 0 -38 80 -34 84 2 2 47 22 99 45 52 22 109
50 125 61 37 25 46 22 62 -18z m-6539 -157 c0 -26 -1 -24 -9 10 -4 22 -8 58
-7 80 1 39 1 39 8 -10 5 -27 8 -63 8 -80z m4982 81 c0 -2 -7 -7 -16 -10 -8 -3
-12 -2 -9 4 6 10 25 14 25 6z m-120 -62 c-78 -43 -262 -125 -268 -120 -2 3 24
17 59 33 34 15 105 49 158 75 114 55 142 62 51 12z m-4853 -86 c-3 -7 -5 -2
-5 12 0 14 2 19 5 13 2 -7 2 -19 0 -25z m6073 -31 c41 -23 111 -70 155 -102
44 -33 101 -74 127 -90 46 -29 60 -56 36 -71 -8 -5 -9 0 -6 14 8 28 -5 28 -42
1 l-29 -22 -36 32 c-20 17 -38 31 -41 31 -3 0 -18 -8 -32 -19 -15 -10 -44 -26
-65 -34 l-37 -16 16 -41 c9 -22 15 -42 13 -44 -15 -10 -90 -33 -93 -28 -3 6
-33 168 -65 352 -9 51 -2 80 18 80 4 0 40 -19 81 -43z m-1505 -17 c-3 -5 -12
-10 -18 -10 -7 0 -6 4 3 10 19 12 23 12 15 0z m-35 -15 c0 -6 -56 -35 -67 -35
-4 1 8 9 27 20 39 22 40 22 40 15z m-85 -45 c-3 -5 -12 -10 -18 -10 -7 0 -6 4
3 10 19 12 23 12 15 0z m-155 -74 c0 -6 -405 -216 -416 -216 -10 0 154 89 306
166 115 58 110 56 110 50z m1423 -20 c18 -7 43 -25 56 -39 22 -24 23 -32 18
-92 l-6 -66 47 -20 c26 -11 60 -26 77 -33 l29 -13 -40 -27 -41 -27 -57 30
c-56 30 -122 49 -132 38 -7 -7 12 -44 48 -89 l29 -37 -31 -16 c-30 -15 -33
-15 -52 2 -11 10 -62 82 -113 159 -51 78 -98 144 -104 148 -15 10 -14 26 2 26
7 0 44 15 82 34 77 38 135 45 188 22z m-417 -163 c-17 -104 -26 -176 -21 -184
9 -14 131 -79 188 -101 67 -25 83 -40 68 -64 -10 -18 -10 -17 -11 4 l0 24 -44
-25 c-37 -20 -46 -22 -58 -11 -19 19 -165 84 -172 77 -14 -15 -3 -45 34 -94
22 -30 40 -56 40 -60 0 -4 -12 -9 -27 -12 -16 -3 -35 -7 -44 -9 -10 -2 -53 52
-132 168 -126 186 -124 180 -61 212 19 10 25 5 60 -48 21 -33 41 -60 45 -60 6
0 33 75 49 137 11 42 49 83 78 83 11 0 13 -8 8 -37z m-1456 -48 c0 -6 -277
-145 -287 -144 -6 0 273 146 285 148 1 1 2 -1 2 -4z m2091 -135 c-5 -25 -9
-35 -10 -24 -1 28 11 92 16 79 1 -6 -1 -30 -6 -55z m-1036 -92 c81 -110 175
-248 175 -258 0 -4 -14 -13 -31 -20 -26 -11 -36 -10 -77 9 -59 27 -246 91
-251 85 -7 -6 62 -112 101 -155 21 -23 37 -42 36 -43 -2 -1 -22 -10 -44 -22
l-41 -21 -46 63 c-26 35 -67 100 -92 144 -26 43 -60 94 -76 111 -23 25 -27 34
-17 41 44 29 93 19 256 -48 56 -24 102 -41 102 -38 0 9 -115 169 -130 181 -8
6 -13 13 -10 15 9 6 75 37 80 37 3 0 32 -37 65 -81z m-1400 52 c-3 -5 -12 -10
-18 -10 -7 0 -6 4 3 10 19 12 23 12 15 0z m-35 -15 c0 -6 -177 -95 -187 -94
-6 0 174 96 185 98 1 1 2 -1 2 -4z m-3088 -157 c48 -61 26 -44 -32 25 -30 34
-41 51 -26 37 15 -14 41 -42 58 -62z m4006 -76 c40 -50 192 -293 192 -306 0
-6 -15 -21 -34 -33 l-34 -22 -91 154 c-50 85 -103 167 -117 184 l-25 30 33 15
c45 20 43 20 76 -22z m-3893 -32 c10 -11 16 -20 13 -20 -3 0 -13 9 -23 20 -10
11 -16 20 -13 20 3 0 13 -9 23 -20z m3457 -218 c8 -8 5 -20 -16 -46 -25 -34
-29 -35 -71 -29 -51 7 -75 -7 -75 -42 0 -32 18 -36 129 -29 l97 7 37 -33 c29
-25 37 -39 37 -66 0 -74 -58 -140 -142 -165 -42 -12 -128 16 -128 42 0 25 29
44 61 41 40 -5 97 16 109 38 14 26 13 27 -14 45 -21 14 -32 14 -84 4 -69 -14
-99 -6 -150 41 -25 23 -32 37 -32 66 0 43 39 107 79 130 30 17 144 15 163 -4z
m-2837 -112 c13 -5 14 -9 5 -9 -8 0 -24 4 -35 9 -13 5 -14 9 -5 9 8 0 24 -4
35 -9z m130 -40 c13 -5 14 -9 5 -9 -8 0 -24 4 -35 9 -13 5 -14 9 -5 9 8 0 24
-4 35 -9z m872 4 c-3 -3 -12 -4 -19 -1 -8 3 -5 6 6 6 11 1 17 -2 13 -5z m-787
-24 c20 -6 21 -8 5 -8 -11 0 -31 4 -45 8 -20 6 -21 8 -5 8 11 0 31 -4 45 -8z
m73 -17 c-7 -2 -21 -2 -30 0 -10 3 -4 5 12 5 17 0 24 -2 18 -5z m70 -10 c-7
-2 -21 -2 -30 0 -10 3 -4 5 12 5 17 0 24 -2 18 -5z m245 -10 c-26 -2 -71 -2
-100 0 -29 2 -8 3 47 3 55 0 79 -1 53 -3z m1749 -26 c78 -60 292 -262 285
-269 -17 -17 -90 -14 -113 3 -33 26 -39 24 -102 -22 -51 -38 -55 -43 -46 -67
22 -58 -39 -53 -65 6 -16 38 -36 210 -36 320 0 74 12 79 77 29z m-324 -180
c41 -11 99 -63 124 -111 23 -44 13 -126 -20 -170 -24 -31 -135 -96 -164 -96
-5 0 -53 62 -106 139 -54 76 -109 149 -122 161 -45 42 -38 50 80 81 72 19 134
18 208 -4z m-395 -207 c-9 -164 -5 -187 48 -249 20 -23 35 -43 33 -45 -71 -54
-90 -50 -134 32 -59 105 -78 126 -180 192 -52 35 -95 66 -95 71 0 4 19 13 42
19 50 14 65 8 142 -54 37 -31 58 -42 61 -34 3 7 6 54 7 103 l3 90 30 3 c17 2
34 8 39 13 5 5 10 8 11 6 1 -1 -2 -67 -7 -147z m-398 -61 c0 -11 11 -59 25
-107 13 -48 29 -130 35 -182 6 -52 13 -104 16 -117 5 -18 0 -25 -21 -35 -23
-10 -34 -8 -88 19 -57 28 -348 244 -355 263 -2 5 22 16 52 26 l55 17 56 -49
c57 -50 176 -137 180 -132 7 9 -18 200 -31 241 -9 27 -14 49 -13 51 5 3 71 24
82 25 4 1 7 -8 7 -20z m-468 -307 c123 -56 174 -185 113 -288 -26 -44 -83 -90
-143 -114 -42 -17 -127 -8 -179 18 -53 27 -109 91 -124 141 -15 50 1 136 33
176 23 29 88 73 128 86 38 13 123 3 172 -19z m565 -154 c-3 -7 -5 -2 -5 12 0
14 2 19 5 13 2 -7 2 -19 0 -25z m8 -43 c-2 -37 -15 -43 -15 -7 0 18 4 32 8 32
4 0 7 -11 7 -25z m-1089 -65 c103 -44 151 -165 105 -265 -26 -57 -66 -90 -172
-145 l-93 -48 -53 96 c-29 54 -71 132 -93 174 -22 42 -44 79 -50 83 -27 17 -5
39 75 76 129 60 192 67 281 29z m-3071 -109 c3 -6 94 -76 203 -157 108 -81
223 -167 256 -192 32 -24 77 -52 100 -62 44 -18 162 -140 147 -150 -5 -3 -10
-14 -12 -24 -2 -11 -12 -20 -22 -22 -14 -2 -17 3 -12 19 4 17 2 16 -10 -5 -13
-24 -20 -27 -62 -24 -44 2 -51 7 -110 71 l-63 69 -54 -27 c-30 -14 -87 -56
-125 -93 -39 -36 -71 -61 -71 -55 0 7 -4 9 -10 6 -6 -4 -10 5 -10 20 0 25 -10
48 -58 138 -26 48 -102 139 -166 197 -98 90 -111 100 -122 100 -8 0 -34 40
-34 54 0 1 21 17 46 35 25 18 66 51 90 72 43 37 86 50 99 30z m735 -641 c-6
-11 -13 -20 -16 -20 -2 0 0 9 6 20 6 11 13 20 16 20 2 0 0 -9 -6 -20z m20 -24
c0 -3 -4 -8 -10 -11 -5 -3 -10 -1 -10 4 0 6 5 11 10 11 6 0 10 -2 10 -4z m195
-256 c-3 -5 -12 -10 -18 -10 -7 0 -6 4 3 10 19 12 23 12 15 0z"/>
<path d="M6674 9313 c-16 -5 -5 -43 12 -43 8 0 14 9 14 19 0 22 -9 30 -26 24z"/>
<path d="M6630 9260 c0 -5 5 -10 10 -10 6 0 10 5 10 10 0 6 -4 10 -10 10 -5 0
-10 -4 -10 -10z"/>
<path d="M6600 9234 c0 -8 5 -12 10 -9 6 3 10 10 10 16 0 5 -4 9 -10 9 -5 0
-10 -7 -10 -16z"/>
<path d="M6627 9224 c-3 -4 1 -13 9 -21 8 -9 13 -22 10 -29 -3 -7 -1 -16 3
-19 5 -3 14 9 20 25 9 26 8 32 -7 37 -9 3 -20 8 -23 9 -3 2 -9 1 -12 -2z"/>
<path d="M6596 9196 c3 -9 11 -16 16 -16 13 0 5 23 -10 28 -7 2 -10 -2 -6 -12z"/>
<path d="M6507 9184 c-8 -8 1 -24 14 -24 5 0 9 7 9 15 0 15 -12 20 -23 9z"/>
<path d="M6800 9126 c0 -10 9 -16 21 -16 24 0 21 23 -4 28 -10 2 -17 -3 -17
-12z"/>
<path d="M6050 9010 c0 -9 32 -30 46 -30 4 0 -1 9 -11 20 -19 21 -35 26 -35
10z"/>
<path d="M6500 8540 c-9 -6 -10 -10 -3 -10 6 0 15 5 18 10 8 12 4 12 -15 0z"/>
<path d="M6607 8492 c-16 -7 -16 -8 2 -24 18 -15 19 -15 17 8 0 13 -1 24 -1
23 0 0 -8 -4 -18 -7z"/>
<path d="M6637 8305 c-3 -6 4 -12 14 -12 10 -1 19 4 19 11 0 16 -28 17 -33 1z"/>
<path d="M6680 8269 c0 -11 5 -17 10 -14 6 3 10 13 10 21 0 8 -4 14 -10 14 -5
0 -10 -9 -10 -21z"/>
<path d="M6580 8270 c0 -5 5 -10 11 -10 5 0 7 5 4 10 -3 6 -8 10 -11 10 -2 0
-4 -4 -4 -10z"/>
<path d="M6720 8152 c0 -5 7 -13 16 -16 10 -4 14 -1 12 6 -5 15 -28 23 -28 10z"/>
<path d="M6030 8109 c0 -10 -3 -25 -6 -33 -4 -12 -2 -15 9 -10 9 3 13 13 9 26
-5 21 2 21 54 1 7 -2 15 0 19 6 3 7 0 8 -9 5 -9 -3 -16 -2 -16 4 0 5 -13 12
-30 14 -24 4 -30 1 -30 -13z"/>
<path d="M6080 8061 c0 -7 -4 -9 -10 -6 -5 3 -10 1 -10 -5 0 -7 7 -10 15 -6 8
3 21 -2 30 -10 8 -9 15 -11 15 -6 0 5 -9 17 -20 27 -12 11 -20 13 -20 6z"/>
<path d="M5940 8049 c0 -5 4 -8 9 -4 5 3 12 1 16 -5 3 -5 1 -10 -6 -10 -7 0
-10 -2 -7 -5 9 -9 38 7 38 21 0 8 -10 14 -25 14 -14 0 -25 -5 -25 -11z"/>
<path d="M5971 7938 c0 -12 3 -17 6 -10 2 6 9 9 15 6 6 -4 9 -1 6 6 -8 24 -28
23 -27 -2z"/>
<path d="M2905 7520 c-3 -6 1 -7 9 -4 18 7 21 14 7 14 -6 0 -13 -4 -16 -10z"/>
<path d="M6490 7358 c0 -18 18 -34 28 -24 3 4 -2 14 -11 23 -16 16 -17 16 -17
1z"/>
<path d="M5855 6870 c3 -5 8 -10 11 -10 2 0 4 5 4 10 0 6 -5 10 -11 10 -5 0
-7 -4 -4 -10z"/>
<path d="M2760 4350 c13 -10 28 -16 31 -14 4 2 15 -3 24 -12 9 -9 19 -13 22
-10 11 11 -20 34 -62 45 l-40 10 25 -19z"/>
<path d="M3160 5170 c0 -5 5 -10 11 -10 5 0 7 5 4 10 -3 6 -8 10 -11 10 -2 0
-4 -4 -4 -10z"/>
<path d="M8884 4538 c4 -28 9 -55 12 -59 4 -7 84 32 84 41 -1 7 -85 70 -95 70
-4 0 -4 -23 -1 -52z"/>
<path d="M8104 4195 c3 -9 9 -34 12 -56 7 -45 16 -47 63 -18 l34 21 -29 19
c-16 11 -42 27 -58 35 -27 15 -28 15 -22 -1z"/>
<path d="M7637 4056 c-21 -8 -41 -16 -43 -19 -6 -6 65 -107 75 -107 3 0 23 14
44 31 76 62 22 130 -76 95z"/>
<path d="M5490 2835 c0 -50 2 -56 18 -50 9 3 30 9 45 12 35 7 31 18 -21 61
l-42 35 0 -58z"/>
<path d="M5038 2759 l-37 -11 32 -41 c18 -23 48 -68 67 -100 19 -31 38 -57 42
-57 17 0 59 47 67 75 26 92 -65 163 -171 134z"/>
<path d="M3755 2174 c-56 -29 -85 -65 -85 -104 0 -68 74 -140 143 -140 37 0
96 33 122 68 29 39 27 103 -5 137 -48 53 -119 68 -175 39z"/>
<path d="M3265 1920 c-47 -8 -105 -33 -105 -45 0 -5 17 -38 39 -73 21 -34 46
-80 56 -102 10 -22 22 -40 27 -40 20 0 126 82 137 106 35 78 -58 172 -154 154z"/>
<path d="M1001 1294 c0 -11 3 -14 6 -6 3 7 2 16 -1 19 -3 4 -6 -2 -5 -13z"/>
<path d="M928 10233 c6 -2 18 -2 25 0 6 3 1 5 -13 5 -14 0 -19 -2 -12 -5z"/>
<path d="M7410 10232 c0 -16 70 -45 250 -105 69 -23 127 -41 130 -42 3 0 11
-4 18 -8 7 -5 22 -5 33 -2 15 5 19 4 15 -4 -4 -7 1 -11 13 -11 11 0 23 -5 26
-10 4 -6 11 -8 16 -5 5 4 16 -1 25 -9 9 -9 19 -14 23 -12 10 7 1 66 -10 66
-15 0 -10 19 13 45 13 16 32 25 50 25 21 0 28 5 28 20 0 13 7 20 20 20 13 0
20 7 20 20 0 20 -7 20 -335 20 -184 0 -335 -4 -335 -8z"/>
<path d="M5525 10040 c-5 -30 -11 -40 -26 -40 -12 0 -19 -7 -19 -20 0 -32 55
-27 91 9 34 35 39 71 9 71 -11 0 -20 5 -20 10 0 6 -6 10 -14 10 -9 0 -17 -15
-21 -40z"/>
<path d="M7360 10070 c0 -5 5 -10 10 -10 6 0 10 5 10 10 0 6 -4 10 -10 10 -5
0 -10 -4 -10 -10z"/>
<path d="M4998 10001 c12 -7 62 -4 62 5 0 2 -17 4 -37 4 -24 0 -33 -3 -25 -9z"/>
<path d="M8075 9990 c-10 -16 56 -51 72 -38 9 7 21 7 44 -2 22 -10 33 -10 42
-1 6 6 24 11 39 11 18 0 28 5 28 15 0 18 -52 33 -58 17 -2 -8 -9 -9 -22 -2
-13 7 -28 6 -47 -1 -19 -7 -29 -7 -31 0 -5 14 -59 14 -67 1z m159 -19 c6 -10
-24 -25 -32 -16 -3 3 1 5 9 5 11 0 11 2 -1 10 -13 8 -13 10 2 10 9 0 19 -4 22
-9z"/>
<path d="M8380 9980 c0 -11 5 -20 10 -20 6 0 10 9 10 20 0 11 -4 20 -10 20 -5
0 -10 -9 -10 -20z"/>
<path d="M5431 9974 c0 -11 3 -14 6 -6 3 7 2 16 -1 19 -3 4 -6 -2 -5 -13z"/>
<path d="M5192 9925 c3 -28 13 -33 22 -9 10 25 7 34 -9 34 -10 0 -14 -9 -13
-25z"/>
<path d="M4871 9914 c0 -11 3 -14 6 -6 3 7 2 16 -1 19 -3 4 -6 -2 -5 -13z"/>
<path d="M5072 9909 c2 -6 7 -10 11 -10 4 1 14 1 22 1 8 0 15 5 15 10 0 6 -12
10 -26 10 -14 0 -24 -5 -22 -11z"/>
<path d="M5280 9900 c0 -11 6 -20 13 -20 7 0 19 -9 27 -20 24 -33 40 -25 40
20 l0 40 -40 0 c-33 0 -40 -3 -40 -20z"/>
<path d="M4790 9890 c-10 -6 -11 -10 -2 -10 6 0 12 -9 12 -20 0 -29 32 -25 46
5 7 13 9 26 6 30 -9 8 -46 6 -62 -5z"/>
<path d="M7220 9885 c0 -17 2 -18 24 -9 18 7 12 24 -10 24 -8 0 -14 -7 -14
-15z"/>
<path d="M6982 9834 c1 -9 9 -19 16 -22 9 -3 13 2 10 14 -1 9 -9 19 -16 22 -9
3 -13 -2 -10 -14z"/>
<path d="M5962 9780 c0 -14 2 -19 5 -12 2 6 2 18 0 25 -3 6 -5 1 -5 -13z"/>
<path d="M5740 9769 c0 -3 -9 -16 -20 -29 -25 -29 -17 -39 38 -43 24 -3 45 -7
49 -11 3 -3 12 -6 20 -6 18 0 18 89 1 92 -33 4 -88 2 -88 -3z m57 -41 c-3 -8
-6 -5 -6 6 -1 11 2 17 5 13 3 -3 4 -12 1 -19z"/>
<path d="M5671 9744 c0 -11 3 -14 6 -6 3 7 2 16 -1 19 -3 4 -6 -2 -5 -13z"/>
<path d="M6468 9733 c-23 -6 -23 -15 1 -35 18 -15 19 -15 24 8 5 27 0 32 -25
27z"/>
<path d="M5955 9681 c-3 -5 0 -13 5 -16 15 -9 60 3 60 15 0 13 -57 13 -65 1z"/>
<path d="M6196 9683 c-3 -3 -6 -9 -6 -13 0 -12 37 -50 49 -50 14 0 32 42 22
51 -10 10 -58 19 -65 12z"/>
<path d="M6100 9671 c0 -5 -3 -17 -6 -25 -5 -13 -2 -15 12 -9 22 8 35 24 28
35 -7 11 -34 10 -34 -1z"/>
<path d="M6720 9660 c0 -5 5 -10 10 -10 6 0 10 5 10 10 0 6 -4 10 -10 10 -5 0
-10 -4 -10 -10z"/>
<path d="M6039 9637 c15 -19 41 -23 41 -7 0 6 -4 10 -9 10 -5 0 -18 3 -28 7
-16 6 -16 5 -4 -10z"/>
<path d="M6357 9643 c-13 -13 -7 -31 17 -46 22 -15 24 -14 37 9 11 22 11 27
-1 34 -18 11 -44 13 -53 3z"/>
<path d="M6477 9643 c-4 -3 -7 -15 -7 -26 0 -19 1 -19 20 -2 11 10 17 22 14
26 -6 11 -18 12 -27 2z"/>
<path d="M6590 9611 c0 -10 7 -22 16 -25 22 -8 23 -6 13 22 -10 27 -29 29 -29
3z"/>
<path d="M5850 9610 c0 -5 5 -10 10 -10 6 0 10 5 10 10 0 6 -4 10 -10 10 -5 0
-10 -4 -10 -10z"/>
<path d="M6265 9610 c-3 -5 1 -10 10 -10 9 0 13 5 10 10 -3 6 -8 10 -10 10 -2
0 -7 -4 -10 -10z"/>
<path d="M6435 9600 c3 -5 8 -10 11 -10 2 0 4 5 4 10 0 6 -5 10 -11 10 -5 0
-7 -4 -4 -10z"/>
<path d="M5929 9574 c-15 -18 -3 -32 13 -16 8 8 15 7 24 -6 8 -10 13 -12 14
-4 0 6 8 12 17 12 25 0 3 18 -29 24 -16 3 -32 -1 -39 -10z"/>
<path d="M6550 9570 c6 -11 18 -20 27 -20 14 0 14 2 -2 20 -10 11 -22 20 -27
20 -5 0 -4 -9 2 -20z"/>
<path d="M6333 9573 c-14 -3 -23 -12 -23 -23 0 -13 5 -17 15 -14 8 4 17 -1 21
-10 8 -21 22 -20 26 1 3 15 4 15 21 -1 17 -18 19 -18 32 0 18 23 18 31 4 40
-6 3 -15 1 -20 -7 -6 -11 -11 -10 -27 4 -10 9 -20 16 -23 16 -2 -1 -14 -4 -26
-6z"/>
<path d="M5625 9560 c-11 -18 26 -23 43 -6 15 15 14 16 -10 16 -15 0 -30 -5
-33 -10z"/>
<path d="M6665 9560 c-3 -5 -1 -10 4 -10 6 0 11 5 11 10 0 6 -2 10 -4 10 -3 0
-8 -4 -11 -10z"/>
<path d="M10160 9560 c0 -5 7 -10 15 -10 8 0 15 5 15 10 0 6 -7 10 -15 10 -8
0 -15 -4 -15 -10z"/>
<path d="M6016 9544 c-15 -15 -18 -22 -20 -54 -1 -8 -10 -15 -21 -15 -16 0
-20 6 -18 28 2 29 -6 34 -25 15 -18 -18 -15 -32 13 -49 l26 -15 -36 -14 c-41
-16 -50 -46 -11 -36 14 3 28 1 31 -4 4 -6 11 -8 16 -4 7 4 6 10 0 18 -8 9 -2
20 19 41 17 16 30 35 30 42 0 8 13 14 30 14 17 1 35 3 40 4 6 1 17 3 25 4 8 0
15 6 15 12 0 6 -7 8 -15 5 -9 -3 -18 1 -21 9 -9 23 -26 18 -19 -5 4 -13 2 -20
-7 -20 -17 0 -47 20 -30 20 6 0 12 5 12 10 0 15 -16 12 -34 -6z"/>
<path d="M6253 9553 c-27 -5 -30 -18 -7 -27 29 -11 44 -6 44 14 0 11 -3 19 -7
19 -5 -1 -18 -4 -30 -6z"/>
<path d="M5551 9534 c0 -11 3 -14 6 -6 3 7 2 16 -1 19 -3 4 -6 -2 -5 -13z"/>
<path d="M6860 9524 c0 -8 5 -12 10 -9 6 4 8 11 5 16 -9 14 -15 11 -15 -7z"/>
<path d="M9355 9529 c-10 -15 3 -25 16 -12 7 7 7 13 1 17 -6 3 -14 1 -17 -5z"/>
<path d="M5770 9516 c0 -8 -6 -16 -12 -19 -8 -2 -9 -8 -4 -13 5 -5 11 -4 13 4
3 6 11 12 19 12 8 0 11 6 8 15 -8 19 -24 20 -24 1z"/>
<path d="M6170 9520 c19 -13 30 -13 30 0 0 6 -10 10 -22 10 -19 0 -20 -2 -8
-10z"/>
<path d="M6740 9498 c0 -11 4 -16 11 -13 6 4 16 0 22 -9 13 -16 57 -12 57 6 0
5 -9 6 -20 3 -11 -3 -20 -3 -20 2 0 4 -11 13 -25 20 -22 10 -25 9 -25 -9z"/>
<path d="M6290 9500 c0 -5 5 -10 10 -10 6 0 10 5 10 10 0 6 -4 10 -10 10 -5 0
-10 -4 -10 -10z"/>
<path d="M9550 9500 c0 -5 11 -10 25 -10 14 0 25 5 25 10 0 6 -11 10 -25 10
-14 0 -25 -4 -25 -10z"/>
<path d="M9620 9490 c0 -11 -6 -20 -14 -20 -9 0 -12 -8 -8 -25 5 -26 26 -32
52 -15 13 9 12 12 -4 25 -16 12 -17 18 -8 27 16 16 15 28 -3 28 -8 0 -15 -9
-15 -20z"/>
<path d="M10171 9490 c-19 -14 -22 -23 -17 -45 6 -23 9 -25 22 -14 13 10 17
10 24 -1 7 -11 11 -10 24 3 22 21 20 39 -7 59 -22 15 -25 15 -46 -2z"/>
<path d="M6245 9490 c-3 -5 -3 -15 1 -21 3 -6 0 -15 -7 -21 -11 -7 -9 -8 6 -6
13 2 21 12 23 31 3 26 -11 37 -23 17z"/>
<path d="M6313 9486 c-28 -13 -30 -26 -4 -26 10 0 22 7 25 16 8 21 6 22 -21
10z"/>
<path d="M9500 9484 c0 -9 5 -14 12 -12 18 6 21 28 4 28 -9 0 -16 -7 -16 -16z"/>
<path d="M5438 9483 c7 -3 16 -2 19 1 4 3 -2 6 -13 5 -11 0 -14 -3 -6 -6z"/>
<path d="M6158 9483 c7 -3 16 -2 19 1 4 3 -2 6 -13 5 -11 0 -14 -3 -6 -6z"/>
<path d="M8928 9483 c7 -3 16 -2 19 1 4 3 -2 6 -13 5 -11 0 -14 -3 -6 -6z"/>
<path d="M6690 9470 c0 -5 5 -10 10 -10 6 0 10 5 10 10 0 6 -4 10 -10 10 -5 0
-10 -4 -10 -10z"/>
<path d="M10060 9470 c0 -5 5 -10 10 -10 6 0 10 5 10 10 0 6 -4 10 -10 10 -5
0 -10 -4 -10 -10z"/>
<path d="M6757 9431 c-8 -40 -10 -37 27 -47 26 -6 28 -5 21 17 -4 13 -4 21 0
17 11 -11 45 10 45 27 0 8 -4 15 -10 15 -5 0 -10 -4 -10 -10 0 -5 -7 -7 -15
-4 -8 4 -17 -1 -21 -10 -9 -23 -22 -20 -26 7 -3 18 -5 15 -11 -12z"/>
<path d="M6280 9439 c0 -5 5 -7 10 -4 6 3 10 8 10 11 0 2 -4 4 -10 4 -5 0 -10
-5 -10 -11z"/>
<path d="M9730 9425 c0 -16 6 -25 15 -25 9 0 15 9 15 25 0 16 -6 25 -15 25 -9
0 -15 -9 -15 -25z"/>
<path d="M6095 9409 c19 -36 18 -38 -18 -41 -33 -3 -41 -20 -21 -45 15 -17 15
-17 11 4 -3 15 -1 20 9 16 8 -3 14 -12 14 -20 0 -10 6 -13 16 -9 9 3 18 6 21
6 3 0 0 6 -6 14 -9 11 -6 20 14 41 29 32 34 56 6 31 -18 -16 -19 -16 -25 9 -4
14 -13 25 -21 25 -14 0 -14 -4 0 -31z"/>
<path d="M8930 9436 c0 -4 7 -14 15 -22 8 -9 15 -11 15 -6 0 5 -7 15 -15 22
-8 7 -15 9 -15 6z"/>
<path d="M6225 9410 c-7 -12 2 -30 16 -30 12 0 12 27 0 35 -5 3 -12 1 -16 -5z"/>
<path d="M9241 9406 c-30 -37 28 -55 67 -20 24 21 25 23 7 24 -11 0 -29 3 -41
6 -12 3 -26 -1 -33 -10z"/>
<path d="M9933 9413 c-7 -2 -13 -15 -13 -28 0 -13 -6 -25 -12 -28 -7 -2 -1 -8
14 -12 17 -4 36 -1 55 9 15 8 22 15 16 16 -7 0 -13 9 -13 19 0 15 -23 35 -33
30 -1 0 -8 -3 -14 -6z"/>
<path d="M6066 9395 c-3 -8 -1 -15 4 -15 13 0 22 18 11 24 -5 3 -11 -1 -15 -9z"/>
<path d="M6295 9390 c3 -5 8 -10 11 -10 2 0 4 5 4 10 0 6 -5 10 -11 10 -5 0
-7 -4 -4 -10z"/>
<path d="M8990 9388 c0 -4 5 -10 10 -13 6 -3 10 -2 10 4 0 5 8 12 18 14 9 3 5
4 -10 4 -16 -1 -28 -5 -28 -9z"/>
<path d="M5810 9360 c0 -5 7 -10 16 -10 8 0 12 5 9 10 -3 6 -10 10 -16 10 -5
0 -9 -4 -9 -10z"/>
<path d="M9040 9349 c0 -5 5 -7 10 -4 6 3 10 8 10 11 0 2 -4 4 -10 4 -5 0 -10
-5 -10 -11z"/>
<path d="M9133 9344 c-3 -8 -1 -20 6 -27 8 -8 11 -4 11 16 0 30 -7 35 -17 11z"/>
<path d="M9280 9337 c0 -14 -4 -17 -17 -12 -50 22 -72 18 -92 -16 -20 -33 -20
-49 2 -49 7 0 6 4 -3 10 -9 6 -10 10 -3 10 6 0 18 3 27 6 11 4 16 0 16 -14 0
-12 5 -24 10 -27 6 -3 10 -2 10 4 0 5 3 17 7 27 4 12 3 15 -5 10 -8 -5 -12 1
-12 15 0 18 3 20 12 11 7 -7 21 -12 31 -12 17 0 18 -2 6 -16 -11 -14 -10 -19
9 -34 12 -10 22 -25 22 -34 0 -9 5 -16 10 -16 12 0 13 37 2 42 -12 4 -23 78
-11 78 5 0 9 -15 9 -32 0 -25 3 -29 10 -18 8 12 10 12 11 -5 0 -14 2 -16 6 -5
3 8 15 26 27 39 15 17 17 25 9 28 -7 3 -13 11 -13 18 0 10 -12 13 -40 12 -32
-1 -40 -5 -40 -20z"/>
<path d="M6300 9339 c0 -5 9 -9 20 -9 11 0 20 2 20 4 0 2 -9 6 -20 9 -11 3
-20 1 -20 -4z"/>
<path d="M5910 9321 c0 -5 7 -11 15 -15 9 -3 15 0 15 9 0 8 -7 15 -15 15 -8 0
-15 -4 -15 -9z"/>
<path d="M6255 9321 c-6 -11 9 -23 19 -14 9 9 7 23 -3 23 -6 0 -12 -4 -16 -9z"/>
<path d="M10200 9260 c0 -13 7 -20 20 -20 13 0 20 7 20 20 0 13 -7 20 -20 20
-13 0 -20 -7 -20 -20z"/>
<path d="M9340 9220 c0 -13 7 -20 20 -20 23 0 26 10 8 28 -18 18 -28 15 -28
-8z"/>
<path d="M9240 9212 c0 -10 9 -25 19 -34 18 -15 19 -15 24 3 4 16 1 19 -14 14
-11 -4 -19 -2 -19 4 0 6 5 11 10 11 6 0 10 5 10 10 0 6 -7 10 -15 10 -8 0 -15
-8 -15 -18z"/>
<path d="M9630 9170 c0 -26 25 -36 56 -22 39 19 31 42 -16 42 -34 0 -40 -3
-40 -20z"/>
<path d="M1282 931 c2 -7 7 -12 11 -12 12 1 9 15 -3 20 -7 2 -11 -2 -8 -8z"/>
<path d="M10203 714 c-18 -7 -56 -29 -85 -47 -46 -29 -152 -83 -228 -117 -39
-17 -69 -36 -95 -58 -14 -12 -36 -24 -50 -28 -14 -3 -25 -10 -25 -15 0 -5 -6
-9 -13 -9 -16 0 -276 -131 -315 -159 -17 -12 -35 -21 -40 -21 -6 0 -17 -6 -24
-13 -16 -14 -26 -20 -151 -86 -52 -28 -102 -51 -110 -51 -21 0 -196 -90 -177
-90 13 0 13 -1 0 -10 -10 -6 223 -10 668 -10 l682 0 0 365 c0 201 -1 365 -2
364 -2 0 -17 -7 -35 -15z"/>
</g>
</svg>
